<?xml version="1.0" encoding="utf-8" standalone="no"?>
<!DOCTYPE svg PUBLIC "-//W3C//DTD SVG 1.1//EN"
  "http://www.w3.org/Graphics/SVG/1.1/DTD/svg11.dtd">
<!-- Created with matplotlib (https://matplotlib.org/) -->
<svg height="345.6pt" version="1.1" viewBox="0 0 460.8 345.6" width="460.8pt" xmlns="http://www.w3.org/2000/svg" xmlns:xlink="http://www.w3.org/1999/xlink">
 <defs>
  <style type="text/css">
*{stroke-linecap:butt;stroke-linejoin:round;}
  </style>
 </defs>
 <g id="figure_1">
  <g id="patch_1">
   <path d="M 0 345.6 
L 460.8 345.6 
L 460.8 0 
L 0 0 
z
" style="fill:#ffffff;"/>
  </g>
  <g id="axes_1">
   <g id="patch_2">
    <path d="M 51.0405 305.3595 
L 450.432 305.3595 
L 450.432 10.368 
L 51.0405 10.368 
z
" style="fill:#eaeaf2;"/>
   </g>
   <g id="matplotlib.axis_1">
    <g id="xtick_1">
     <g id="line2d_1">
      <path clip-path="url(#pe4eed0bef9)" d="M 61.746799 305.3595 
L 61.746799 10.368 
" style="fill:none;stroke:#ffffff;stroke-linecap:round;stroke-width:0.8;"/>
     </g>
     <g id="text_1">
      <!-- −1.00 -->
      <defs>
       <path d="M 52.828125 31.203125 
L 5.5625 31.203125 
L 5.5625 39.40625 
L 52.828125 39.40625 
z
" id="ArialMT-8722"/>
       <path d="M 37.25 0 
L 28.46875 0 
L 28.46875 56 
Q 25.296875 52.984375 20.140625 49.953125 
Q 14.984375 46.921875 10.890625 45.40625 
L 10.890625 53.90625 
Q 18.265625 57.375 23.78125 62.296875 
Q 29.296875 67.234375 31.59375 71.875 
L 37.25 71.875 
z
" id="ArialMT-49"/>
       <path d="M 9.078125 0 
L 9.078125 10.015625 
L 19.09375 10.015625 
L 19.09375 0 
z
" id="ArialMT-46"/>
       <path d="M 4.15625 35.296875 
Q 4.15625 48 6.765625 55.734375 
Q 9.375 63.484375 14.515625 67.671875 
Q 19.671875 71.875 27.484375 71.875 
Q 33.25 71.875 37.59375 69.546875 
Q 41.9375 67.234375 44.765625 62.859375 
Q 47.609375 58.5 49.21875 52.21875 
Q 50.828125 45.953125 50.828125 35.296875 
Q 50.828125 22.703125 48.234375 14.96875 
Q 45.65625 7.234375 40.5 3 
Q 35.359375 -1.21875 27.484375 -1.21875 
Q 17.140625 -1.21875 11.234375 6.203125 
Q 4.15625 15.140625 4.15625 35.296875 
z
M 13.1875 35.296875 
Q 13.1875 17.671875 17.3125 11.828125 
Q 21.4375 6 27.484375 6 
Q 33.546875 6 37.671875 11.859375 
Q 41.796875 17.71875 41.796875 35.296875 
Q 41.796875 52.984375 37.671875 58.78125 
Q 33.546875 64.59375 27.390625 64.59375 
Q 21.34375 64.59375 17.71875 59.46875 
Q 13.1875 52.9375 13.1875 35.296875 
z
" id="ArialMT-48"/>
      </defs>
      <g style="fill:#262626;" transform="translate(50.614111 319.958375)scale(0.088 -0.088)">
       <use xlink:href="#ArialMT-8722"/>
       <use x="58.398438" xlink:href="#ArialMT-49"/>
       <use x="114.013672" xlink:href="#ArialMT-46"/>
       <use x="141.796875" xlink:href="#ArialMT-48"/>
       <use x="197.412109" xlink:href="#ArialMT-48"/>
      </g>
     </g>
    </g>
    <g id="xtick_2">
     <g id="line2d_2">
      <path clip-path="url(#pe4eed0bef9)" d="M 108.295925 305.3595 
L 108.295925 10.368 
" style="fill:none;stroke:#ffffff;stroke-linecap:round;stroke-width:0.8;"/>
     </g>
     <g id="text_2">
      <!-- −0.75 -->
      <defs>
       <path d="M 4.734375 62.203125 
L 4.734375 70.65625 
L 51.078125 70.65625 
L 51.078125 63.8125 
Q 44.234375 56.546875 37.515625 44.484375 
Q 30.8125 32.421875 27.15625 19.671875 
Q 24.515625 10.6875 23.78125 0 
L 14.75 0 
Q 14.890625 8.453125 18.0625 20.40625 
Q 21.234375 32.375 27.171875 43.484375 
Q 33.109375 54.59375 39.796875 62.203125 
z
" id="ArialMT-55"/>
       <path d="M 4.15625 18.75 
L 13.375 19.53125 
Q 14.40625 12.796875 18.140625 9.390625 
Q 21.875 6 27.15625 6 
Q 33.5 6 37.890625 10.78125 
Q 42.28125 15.578125 42.28125 23.484375 
Q 42.28125 31 38.0625 35.34375 
Q 33.84375 39.703125 27 39.703125 
Q 22.75 39.703125 19.328125 37.765625 
Q 15.921875 35.84375 13.96875 32.765625 
L 5.71875 33.84375 
L 12.640625 70.609375 
L 48.25 70.609375 
L 48.25 62.203125 
L 19.671875 62.203125 
L 15.828125 42.96875 
Q 22.265625 47.46875 29.34375 47.46875 
Q 38.71875 47.46875 45.15625 40.96875 
Q 51.609375 34.46875 51.609375 24.265625 
Q 51.609375 14.546875 45.953125 7.46875 
Q 39.0625 -1.21875 27.15625 -1.21875 
Q 17.390625 -1.21875 11.203125 4.25 
Q 5.03125 9.71875 4.15625 18.75 
z
" id="ArialMT-53"/>
      </defs>
      <g style="fill:#262626;" transform="translate(97.163237 319.958375)scale(0.088 -0.088)">
       <use xlink:href="#ArialMT-8722"/>
       <use x="58.398438" xlink:href="#ArialMT-48"/>
       <use x="114.013672" xlink:href="#ArialMT-46"/>
       <use x="141.796875" xlink:href="#ArialMT-55"/>
       <use x="197.412109" xlink:href="#ArialMT-53"/>
      </g>
     </g>
    </g>
    <g id="xtick_3">
     <g id="line2d_3">
      <path clip-path="url(#pe4eed0bef9)" d="M 154.845051 305.3595 
L 154.845051 10.368 
" style="fill:none;stroke:#ffffff;stroke-linecap:round;stroke-width:0.8;"/>
     </g>
     <g id="text_3">
      <!-- −0.50 -->
      <g style="fill:#262626;" transform="translate(143.712363 319.958375)scale(0.088 -0.088)">
       <use xlink:href="#ArialMT-8722"/>
       <use x="58.398438" xlink:href="#ArialMT-48"/>
       <use x="114.013672" xlink:href="#ArialMT-46"/>
       <use x="141.796875" xlink:href="#ArialMT-53"/>
       <use x="197.412109" xlink:href="#ArialMT-48"/>
      </g>
     </g>
    </g>
    <g id="xtick_4">
     <g id="line2d_4">
      <path clip-path="url(#pe4eed0bef9)" d="M 201.394177 305.3595 
L 201.394177 10.368 
" style="fill:none;stroke:#ffffff;stroke-linecap:round;stroke-width:0.8;"/>
     </g>
     <g id="text_4">
      <!-- −0.25 -->
      <defs>
       <path d="M 50.34375 8.453125 
L 50.34375 0 
L 3.03125 0 
Q 2.9375 3.171875 4.046875 6.109375 
Q 5.859375 10.9375 9.828125 15.625 
Q 13.8125 20.3125 21.34375 26.46875 
Q 33.015625 36.03125 37.109375 41.625 
Q 41.21875 47.21875 41.21875 52.203125 
Q 41.21875 57.421875 37.46875 61 
Q 33.734375 64.59375 27.734375 64.59375 
Q 21.390625 64.59375 17.578125 60.78125 
Q 13.765625 56.984375 13.71875 50.25 
L 4.6875 51.171875 
Q 5.609375 61.28125 11.65625 66.578125 
Q 17.71875 71.875 27.9375 71.875 
Q 38.234375 71.875 44.234375 66.15625 
Q 50.25 60.453125 50.25 52 
Q 50.25 47.703125 48.484375 43.546875 
Q 46.734375 39.40625 42.65625 34.8125 
Q 38.578125 30.21875 29.109375 22.21875 
Q 21.1875 15.578125 18.9375 13.203125 
Q 16.703125 10.84375 15.234375 8.453125 
z
" id="ArialMT-50"/>
      </defs>
      <g style="fill:#262626;" transform="translate(190.261489 319.958375)scale(0.088 -0.088)">
       <use xlink:href="#ArialMT-8722"/>
       <use x="58.398438" xlink:href="#ArialMT-48"/>
       <use x="114.013672" xlink:href="#ArialMT-46"/>
       <use x="141.796875" xlink:href="#ArialMT-50"/>
       <use x="197.412109" xlink:href="#ArialMT-53"/>
      </g>
     </g>
    </g>
    <g id="xtick_5">
     <g id="line2d_5">
      <path clip-path="url(#pe4eed0bef9)" d="M 247.943302 305.3595 
L 247.943302 10.368 
" style="fill:none;stroke:#ffffff;stroke-linecap:round;stroke-width:0.8;"/>
     </g>
     <g id="text_5">
      <!-- 0.00 -->
      <g style="fill:#262626;" transform="translate(239.38049 319.958375)scale(0.088 -0.088)">
       <use xlink:href="#ArialMT-48"/>
       <use x="55.615234" xlink:href="#ArialMT-46"/>
       <use x="83.398438" xlink:href="#ArialMT-48"/>
       <use x="139.013672" xlink:href="#ArialMT-48"/>
      </g>
     </g>
    </g>
    <g id="xtick_6">
     <g id="line2d_6">
      <path clip-path="url(#pe4eed0bef9)" d="M 294.492428 305.3595 
L 294.492428 10.368 
" style="fill:none;stroke:#ffffff;stroke-linecap:round;stroke-width:0.8;"/>
     </g>
     <g id="text_6">
      <!-- 0.25 -->
      <g style="fill:#262626;" transform="translate(285.929616 319.958375)scale(0.088 -0.088)">
       <use xlink:href="#ArialMT-48"/>
       <use x="55.615234" xlink:href="#ArialMT-46"/>
       <use x="83.398438" xlink:href="#ArialMT-50"/>
       <use x="139.013672" xlink:href="#ArialMT-53"/>
      </g>
     </g>
    </g>
    <g id="xtick_7">
     <g id="line2d_7">
      <path clip-path="url(#pe4eed0bef9)" d="M 341.041554 305.3595 
L 341.041554 10.368 
" style="fill:none;stroke:#ffffff;stroke-linecap:round;stroke-width:0.8;"/>
     </g>
     <g id="text_7">
      <!-- 0.50 -->
      <g style="fill:#262626;" transform="translate(332.478742 319.958375)scale(0.088 -0.088)">
       <use xlink:href="#ArialMT-48"/>
       <use x="55.615234" xlink:href="#ArialMT-46"/>
       <use x="83.398438" xlink:href="#ArialMT-53"/>
       <use x="139.013672" xlink:href="#ArialMT-48"/>
      </g>
     </g>
    </g>
    <g id="xtick_8">
     <g id="line2d_8">
      <path clip-path="url(#pe4eed0bef9)" d="M 387.59068 305.3595 
L 387.59068 10.368 
" style="fill:none;stroke:#ffffff;stroke-linecap:round;stroke-width:0.8;"/>
     </g>
     <g id="text_8">
      <!-- 0.75 -->
      <g style="fill:#262626;" transform="translate(379.027868 319.958375)scale(0.088 -0.088)">
       <use xlink:href="#ArialMT-48"/>
       <use x="55.615234" xlink:href="#ArialMT-46"/>
       <use x="83.398438" xlink:href="#ArialMT-55"/>
       <use x="139.013672" xlink:href="#ArialMT-53"/>
      </g>
     </g>
    </g>
    <g id="xtick_9">
     <g id="line2d_9">
      <path clip-path="url(#pe4eed0bef9)" d="M 434.139806 305.3595 
L 434.139806 10.368 
" style="fill:none;stroke:#ffffff;stroke-linecap:round;stroke-width:0.8;"/>
     </g>
     <g id="text_9">
      <!-- 1.00 -->
      <g style="fill:#262626;" transform="translate(425.576993 319.958375)scale(0.088 -0.088)">
       <use xlink:href="#ArialMT-49"/>
       <use x="55.615234" xlink:href="#ArialMT-46"/>
       <use x="83.398438" xlink:href="#ArialMT-48"/>
       <use x="139.013672" xlink:href="#ArialMT-48"/>
      </g>
     </g>
    </g>
    <g id="text_10">
     <!-- Weight -->
     <defs>
      <path d="M 20.21875 0 
L 1.21875 71.578125 
L 10.9375 71.578125 
L 21.828125 24.65625 
Q 23.578125 17.28125 24.859375 10.015625 
Q 27.59375 21.484375 28.078125 23.25 
L 41.703125 71.578125 
L 53.125 71.578125 
L 63.375 35.359375 
Q 67.234375 21.875 68.953125 10.015625 
Q 70.3125 16.796875 72.515625 25.59375 
L 83.734375 71.578125 
L 93.265625 71.578125 
L 73.640625 0 
L 64.5 0 
L 49.421875 54.546875 
Q 47.515625 61.375 47.171875 62.9375 
Q 46.046875 58.015625 45.0625 54.546875 
L 29.890625 0 
z
" id="ArialMT-87"/>
      <path d="M 42.09375 16.703125 
L 51.171875 15.578125 
Q 49.03125 7.625 43.21875 3.21875 
Q 37.40625 -1.171875 28.375 -1.171875 
Q 17 -1.171875 10.328125 5.828125 
Q 3.65625 12.84375 3.65625 25.484375 
Q 3.65625 38.578125 10.390625 45.796875 
Q 17.140625 53.03125 27.875 53.03125 
Q 38.28125 53.03125 44.875 45.953125 
Q 51.46875 38.875 51.46875 26.03125 
Q 51.46875 25.25 51.421875 23.6875 
L 12.75 23.6875 
Q 13.234375 15.140625 17.578125 10.59375 
Q 21.921875 6.0625 28.421875 6.0625 
Q 33.25 6.0625 36.671875 8.59375 
Q 40.09375 11.140625 42.09375 16.703125 
z
M 13.234375 30.90625 
L 42.1875 30.90625 
Q 41.609375 37.453125 38.875 40.71875 
Q 34.671875 45.796875 27.984375 45.796875 
Q 21.921875 45.796875 17.796875 41.75 
Q 13.671875 37.703125 13.234375 30.90625 
z
" id="ArialMT-101"/>
      <path d="M 6.640625 61.46875 
L 6.640625 71.578125 
L 15.4375 71.578125 
L 15.4375 61.46875 
z
M 6.640625 0 
L 6.640625 51.859375 
L 15.4375 51.859375 
L 15.4375 0 
z
" id="ArialMT-105"/>
      <path d="M 4.984375 -4.296875 
L 13.53125 -5.5625 
Q 14.0625 -9.515625 16.5 -11.328125 
Q 19.78125 -13.765625 25.4375 -13.765625 
Q 31.546875 -13.765625 34.859375 -11.328125 
Q 38.1875 -8.890625 39.359375 -4.5 
Q 40.046875 -1.8125 39.984375 6.78125 
Q 34.234375 0 25.640625 0 
Q 14.9375 0 9.078125 7.71875 
Q 3.21875 15.4375 3.21875 26.21875 
Q 3.21875 33.640625 5.90625 39.90625 
Q 8.59375 46.1875 13.6875 49.609375 
Q 18.796875 53.03125 25.6875 53.03125 
Q 34.859375 53.03125 40.828125 45.609375 
L 40.828125 51.859375 
L 48.921875 51.859375 
L 48.921875 7.03125 
Q 48.921875 -5.078125 46.453125 -10.125 
Q 44 -15.1875 38.640625 -18.109375 
Q 33.296875 -21.046875 25.484375 -21.046875 
Q 16.21875 -21.046875 10.5 -16.875 
Q 4.78125 -12.703125 4.984375 -4.296875 
z
M 12.25 26.859375 
Q 12.25 16.65625 16.296875 11.96875 
Q 20.359375 7.28125 26.46875 7.28125 
Q 32.515625 7.28125 36.609375 11.9375 
Q 40.71875 16.609375 40.71875 26.5625 
Q 40.71875 36.078125 36.5 40.90625 
Q 32.28125 45.75 26.3125 45.75 
Q 20.453125 45.75 16.34375 40.984375 
Q 12.25 36.234375 12.25 26.859375 
z
" id="ArialMT-103"/>
      <path d="M 6.59375 0 
L 6.59375 71.578125 
L 15.375 71.578125 
L 15.375 45.90625 
Q 21.53125 53.03125 30.90625 53.03125 
Q 36.671875 53.03125 40.921875 50.75 
Q 45.171875 48.484375 47 44.484375 
Q 48.828125 40.484375 48.828125 32.859375 
L 48.828125 0 
L 40.046875 0 
L 40.046875 32.859375 
Q 40.046875 39.453125 37.1875 42.453125 
Q 34.328125 45.453125 29.109375 45.453125 
Q 25.203125 45.453125 21.75 43.421875 
Q 18.3125 41.40625 16.84375 37.9375 
Q 15.375 34.46875 15.375 28.375 
L 15.375 0 
z
" id="ArialMT-104"/>
      <path d="M 25.78125 7.859375 
L 27.046875 0.09375 
Q 23.34375 -0.6875 20.40625 -0.6875 
Q 15.625 -0.6875 12.984375 0.828125 
Q 10.359375 2.34375 9.28125 4.8125 
Q 8.203125 7.28125 8.203125 15.1875 
L 8.203125 45.015625 
L 1.765625 45.015625 
L 1.765625 51.859375 
L 8.203125 51.859375 
L 8.203125 64.703125 
L 16.9375 69.96875 
L 16.9375 51.859375 
L 25.78125 51.859375 
L 25.78125 45.015625 
L 16.9375 45.015625 
L 16.9375 14.703125 
Q 16.9375 10.9375 17.40625 9.859375 
Q 17.875 8.796875 18.921875 8.15625 
Q 19.96875 7.515625 21.921875 7.515625 
Q 23.390625 7.515625 25.78125 7.859375 
z
" id="ArialMT-116"/>
     </defs>
     <g style="fill:#262626;" transform="translate(235.7985 332.578875)scale(0.096 -0.096)">
      <use xlink:href="#ArialMT-87"/>
      <use x="94.369141" xlink:href="#ArialMT-101"/>
      <use x="149.984375" xlink:href="#ArialMT-105"/>
      <use x="172.201172" xlink:href="#ArialMT-103"/>
      <use x="227.816406" xlink:href="#ArialMT-104"/>
      <use x="283.431641" xlink:href="#ArialMT-116"/>
     </g>
    </g>
   </g>
   <g id="matplotlib.axis_2">
    <g id="ytick_1">
     <g id="line2d_10">
      <path clip-path="url(#pe4eed0bef9)" d="M 51.0405 305.3595 
L 450.432 305.3595 
" style="fill:none;stroke:#ffffff;stroke-linecap:round;stroke-width:0.8;"/>
     </g>
     <g id="text_11">
      <!-- 0 -->
      <g style="fill:#262626;" transform="translate(37.846875 308.508938)scale(0.088 -0.088)">
       <use xlink:href="#ArialMT-48"/>
      </g>
     </g>
    </g>
    <g id="ytick_2">
     <g id="line2d_11">
      <path clip-path="url(#pe4eed0bef9)" d="M 51.0405 255.137068 
L 450.432 255.137068 
" style="fill:none;stroke:#ffffff;stroke-linecap:round;stroke-width:0.8;"/>
     </g>
     <g id="text_12">
      <!-- 500 -->
      <g style="fill:#262626;" transform="translate(28.059625 258.286505)scale(0.088 -0.088)">
       <use xlink:href="#ArialMT-53"/>
       <use x="55.615234" xlink:href="#ArialMT-48"/>
       <use x="111.230469" xlink:href="#ArialMT-48"/>
      </g>
     </g>
    </g>
    <g id="ytick_3">
     <g id="line2d_12">
      <path clip-path="url(#pe4eed0bef9)" d="M 51.0405 204.914636 
L 450.432 204.914636 
" style="fill:none;stroke:#ffffff;stroke-linecap:round;stroke-width:0.8;"/>
     </g>
     <g id="text_13">
      <!-- 1000 -->
      <g style="fill:#262626;" transform="translate(23.166 208.064073)scale(0.088 -0.088)">
       <use xlink:href="#ArialMT-49"/>
       <use x="55.615234" xlink:href="#ArialMT-48"/>
       <use x="111.230469" xlink:href="#ArialMT-48"/>
       <use x="166.845703" xlink:href="#ArialMT-48"/>
      </g>
     </g>
    </g>
    <g id="ytick_4">
     <g id="line2d_13">
      <path clip-path="url(#pe4eed0bef9)" d="M 51.0405 154.692203 
L 450.432 154.692203 
" style="fill:none;stroke:#ffffff;stroke-linecap:round;stroke-width:0.8;"/>
     </g>
     <g id="text_14">
      <!-- 1500 -->
      <g style="fill:#262626;" transform="translate(23.166 157.841641)scale(0.088 -0.088)">
       <use xlink:href="#ArialMT-49"/>
       <use x="55.615234" xlink:href="#ArialMT-53"/>
       <use x="111.230469" xlink:href="#ArialMT-48"/>
       <use x="166.845703" xlink:href="#ArialMT-48"/>
      </g>
     </g>
    </g>
    <g id="ytick_5">
     <g id="line2d_14">
      <path clip-path="url(#pe4eed0bef9)" d="M 51.0405 104.469771 
L 450.432 104.469771 
" style="fill:none;stroke:#ffffff;stroke-linecap:round;stroke-width:0.8;"/>
     </g>
     <g id="text_15">
      <!-- 2000 -->
      <g style="fill:#262626;" transform="translate(23.166 107.619209)scale(0.088 -0.088)">
       <use xlink:href="#ArialMT-50"/>
       <use x="55.615234" xlink:href="#ArialMT-48"/>
       <use x="111.230469" xlink:href="#ArialMT-48"/>
       <use x="166.845703" xlink:href="#ArialMT-48"/>
      </g>
     </g>
    </g>
    <g id="ytick_6">
     <g id="line2d_15">
      <path clip-path="url(#pe4eed0bef9)" d="M 51.0405 54.247339 
L 450.432 54.247339 
" style="fill:none;stroke:#ffffff;stroke-linecap:round;stroke-width:0.8;"/>
     </g>
     <g id="text_16">
      <!-- 2500 -->
      <g style="fill:#262626;" transform="translate(23.166 57.396777)scale(0.088 -0.088)">
       <use xlink:href="#ArialMT-50"/>
       <use x="55.615234" xlink:href="#ArialMT-53"/>
       <use x="111.230469" xlink:href="#ArialMT-48"/>
       <use x="166.845703" xlink:href="#ArialMT-48"/>
      </g>
     </g>
    </g>
    <g id="text_17">
     <!-- Edge count -->
     <defs>
      <path d="M 7.90625 0 
L 7.90625 71.578125 
L 59.671875 71.578125 
L 59.671875 63.140625 
L 17.390625 63.140625 
L 17.390625 41.21875 
L 56.984375 41.21875 
L 56.984375 32.8125 
L 17.390625 32.8125 
L 17.390625 8.453125 
L 61.328125 8.453125 
L 61.328125 0 
z
" id="ArialMT-69"/>
      <path d="M 40.234375 0 
L 40.234375 6.546875 
Q 35.296875 -1.171875 25.734375 -1.171875 
Q 19.53125 -1.171875 14.328125 2.25 
Q 9.125 5.671875 6.265625 11.796875 
Q 3.421875 17.921875 3.421875 25.875 
Q 3.421875 33.640625 6 39.96875 
Q 8.59375 46.296875 13.765625 49.65625 
Q 18.953125 53.03125 25.34375 53.03125 
Q 30.03125 53.03125 33.6875 51.046875 
Q 37.359375 49.078125 39.65625 45.90625 
L 39.65625 71.578125 
L 48.390625 71.578125 
L 48.390625 0 
z
M 12.453125 25.875 
Q 12.453125 15.921875 16.640625 10.984375 
Q 20.84375 6.0625 26.5625 6.0625 
Q 32.328125 6.0625 36.34375 10.765625 
Q 40.375 15.484375 40.375 25.140625 
Q 40.375 35.796875 36.265625 40.765625 
Q 32.171875 45.75 26.171875 45.75 
Q 20.3125 45.75 16.375 40.96875 
Q 12.453125 36.1875 12.453125 25.875 
z
" id="ArialMT-100"/>
      <path id="ArialMT-32"/>
      <path d="M 40.4375 19 
L 49.078125 17.875 
Q 47.65625 8.9375 41.8125 3.875 
Q 35.984375 -1.171875 27.484375 -1.171875 
Q 16.84375 -1.171875 10.375 5.78125 
Q 3.90625 12.75 3.90625 25.734375 
Q 3.90625 34.125 6.6875 40.421875 
Q 9.46875 46.734375 15.15625 49.875 
Q 20.84375 53.03125 27.546875 53.03125 
Q 35.984375 53.03125 41.359375 48.75 
Q 46.734375 44.484375 48.25 36.625 
L 39.703125 35.296875 
Q 38.484375 40.53125 35.375 43.15625 
Q 32.28125 45.796875 27.875 45.796875 
Q 21.234375 45.796875 17.078125 41.03125 
Q 12.9375 36.28125 12.9375 25.984375 
Q 12.9375 15.53125 16.9375 10.796875 
Q 20.953125 6.0625 27.390625 6.0625 
Q 32.5625 6.0625 36.03125 9.234375 
Q 39.5 12.40625 40.4375 19 
z
" id="ArialMT-99"/>
      <path d="M 3.328125 25.921875 
Q 3.328125 40.328125 11.328125 47.265625 
Q 18.015625 53.03125 27.640625 53.03125 
Q 38.328125 53.03125 45.109375 46.015625 
Q 51.90625 39.015625 51.90625 26.65625 
Q 51.90625 16.65625 48.90625 10.90625 
Q 45.90625 5.171875 40.15625 2 
Q 34.421875 -1.171875 27.640625 -1.171875 
Q 16.75 -1.171875 10.03125 5.8125 
Q 3.328125 12.796875 3.328125 25.921875 
z
M 12.359375 25.921875 
Q 12.359375 15.96875 16.703125 11.015625 
Q 21.046875 6.0625 27.640625 6.0625 
Q 34.1875 6.0625 38.53125 11.03125 
Q 42.875 16.015625 42.875 26.21875 
Q 42.875 35.84375 38.5 40.796875 
Q 34.125 45.75 27.640625 45.75 
Q 21.046875 45.75 16.703125 40.8125 
Q 12.359375 35.890625 12.359375 25.921875 
z
" id="ArialMT-111"/>
      <path d="M 40.578125 0 
L 40.578125 7.625 
Q 34.515625 -1.171875 24.125 -1.171875 
Q 19.53125 -1.171875 15.546875 0.578125 
Q 11.578125 2.34375 9.640625 5 
Q 7.71875 7.671875 6.9375 11.53125 
Q 6.390625 14.109375 6.390625 19.734375 
L 6.390625 51.859375 
L 15.1875 51.859375 
L 15.1875 23.09375 
Q 15.1875 16.21875 15.71875 13.8125 
Q 16.546875 10.359375 19.234375 8.375 
Q 21.921875 6.390625 25.875 6.390625 
Q 29.828125 6.390625 33.296875 8.421875 
Q 36.765625 10.453125 38.203125 13.9375 
Q 39.65625 17.4375 39.65625 24.078125 
L 39.65625 51.859375 
L 48.4375 51.859375 
L 48.4375 0 
z
" id="ArialMT-117"/>
      <path d="M 6.59375 0 
L 6.59375 51.859375 
L 14.5 51.859375 
L 14.5 44.484375 
Q 20.21875 53.03125 31 53.03125 
Q 35.6875 53.03125 39.625 51.34375 
Q 43.5625 49.65625 45.515625 46.921875 
Q 47.46875 44.1875 48.25 40.4375 
Q 48.734375 37.984375 48.734375 31.890625 
L 48.734375 0 
L 39.9375 0 
L 39.9375 31.546875 
Q 39.9375 36.921875 38.90625 39.578125 
Q 37.890625 42.234375 35.28125 43.8125 
Q 32.671875 45.40625 29.15625 45.40625 
Q 23.53125 45.40625 19.453125 41.84375 
Q 15.375 38.28125 15.375 28.328125 
L 15.375 0 
z
" id="ArialMT-110"/>
     </defs>
     <g style="fill:#262626;" transform="translate(17.1455 182.148)rotate(-90)scale(0.096 -0.096)">
      <use xlink:href="#ArialMT-69"/>
      <use x="66.699219" xlink:href="#ArialMT-100"/>
      <use x="122.314453" xlink:href="#ArialMT-103"/>
      <use x="177.929688" xlink:href="#ArialMT-101"/>
      <use x="233.544922" xlink:href="#ArialMT-32"/>
      <use x="261.328125" xlink:href="#ArialMT-99"/>
      <use x="311.328125" xlink:href="#ArialMT-111"/>
      <use x="366.943359" xlink:href="#ArialMT-117"/>
      <use x="422.558594" xlink:href="#ArialMT-110"/>
      <use x="478.173828" xlink:href="#ArialMT-116"/>
     </g>
    </g>
   </g>
   <g id="patch_3">
    <path clip-path="url(#pe4eed0bef9)" d="M 69.194659 305.3595 
L 71.056624 305.3595 
L 71.056624 305.259055 
L 69.194659 305.259055 
z
" style="fill:#4c72b0;opacity:0.4;stroke:#ffffff;stroke-linejoin:miter;stroke-width:0.8;"/>
   </g>
   <g id="patch_4">
    <path clip-path="url(#pe4eed0bef9)" d="M 71.056624 305.3595 
L 72.918589 305.3595 
L 72.918589 305.3595 
L 71.056624 305.3595 
z
" style="fill:#4c72b0;opacity:0.4;stroke:#ffffff;stroke-linejoin:miter;stroke-width:0.8;"/>
   </g>
   <g id="patch_5">
    <path clip-path="url(#pe4eed0bef9)" d="M 72.918589 305.3595 
L 74.780554 305.3595 
L 74.780554 305.259055 
L 72.918589 305.259055 
z
" style="fill:#4c72b0;opacity:0.4;stroke:#ffffff;stroke-linejoin:miter;stroke-width:0.8;"/>
   </g>
   <g id="patch_6">
    <path clip-path="url(#pe4eed0bef9)" d="M 74.780554 305.3595 
L 76.642519 305.3595 
L 76.642519 305.15861 
L 74.780554 305.15861 
z
" style="fill:#4c72b0;opacity:0.4;stroke:#ffffff;stroke-linejoin:miter;stroke-width:0.8;"/>
   </g>
   <g id="patch_7">
    <path clip-path="url(#pe4eed0bef9)" d="M 76.642519 305.3595 
L 78.504484 305.3595 
L 78.504484 304.555941 
L 76.642519 304.555941 
z
" style="fill:#4c72b0;opacity:0.4;stroke:#ffffff;stroke-linejoin:miter;stroke-width:0.8;"/>
   </g>
   <g id="patch_8">
    <path clip-path="url(#pe4eed0bef9)" d="M 78.504484 305.3595 
L 80.366449 305.3595 
L 80.366449 304.756831 
L 78.504484 304.756831 
z
" style="fill:#4c72b0;opacity:0.4;stroke:#ffffff;stroke-linejoin:miter;stroke-width:0.8;"/>
   </g>
   <g id="patch_9">
    <path clip-path="url(#pe4eed0bef9)" d="M 80.366449 305.3595 
L 82.228414 305.3595 
L 82.228414 304.756831 
L 80.366449 304.756831 
z
" style="fill:#4c72b0;opacity:0.4;stroke:#ffffff;stroke-linejoin:miter;stroke-width:0.8;"/>
   </g>
   <g id="patch_10">
    <path clip-path="url(#pe4eed0bef9)" d="M 82.228414 305.3595 
L 84.090379 305.3595 
L 84.090379 303.451048 
L 82.228414 303.451048 
z
" style="fill:#4c72b0;opacity:0.4;stroke:#ffffff;stroke-linejoin:miter;stroke-width:0.8;"/>
   </g>
   <g id="patch_11">
    <path clip-path="url(#pe4eed0bef9)" d="M 84.090379 305.3595 
L 85.952344 305.3595 
L 85.952344 303.350603 
L 84.090379 303.350603 
z
" style="fill:#4c72b0;opacity:0.4;stroke:#ffffff;stroke-linejoin:miter;stroke-width:0.8;"/>
   </g>
   <g id="patch_12">
    <path clip-path="url(#pe4eed0bef9)" d="M 85.952344 305.3595 
L 87.814309 305.3595 
L 87.814309 301.84393 
L 85.952344 301.84393 
z
" style="fill:#4c72b0;opacity:0.4;stroke:#ffffff;stroke-linejoin:miter;stroke-width:0.8;"/>
   </g>
   <g id="patch_13">
    <path clip-path="url(#pe4eed0bef9)" d="M 87.814309 305.3595 
L 89.676274 305.3595 
L 89.676274 302.346154 
L 87.814309 302.346154 
z
" style="fill:#4c72b0;opacity:0.4;stroke:#ffffff;stroke-linejoin:miter;stroke-width:0.8;"/>
   </g>
   <g id="patch_14">
    <path clip-path="url(#pe4eed0bef9)" d="M 89.676274 305.3595 
L 91.53824 305.3595 
L 91.53824 300.236812 
L 89.676274 300.236812 
z
" style="fill:#4c72b0;opacity:0.4;stroke:#ffffff;stroke-linejoin:miter;stroke-width:0.8;"/>
   </g>
   <g id="patch_15">
    <path clip-path="url(#pe4eed0bef9)" d="M 91.53824 305.3595 
L 93.400205 305.3595 
L 93.400205 300.538147 
L 91.53824 300.538147 
z
" style="fill:#4c72b0;opacity:0.4;stroke:#ffffff;stroke-linejoin:miter;stroke-width:0.8;"/>
   </g>
   <g id="patch_16">
    <path clip-path="url(#pe4eed0bef9)" d="M 93.400205 305.3595 
L 95.26217 305.3595 
L 95.26217 297.826135 
L 93.400205 297.826135 
z
" style="fill:#4c72b0;opacity:0.4;stroke:#ffffff;stroke-linejoin:miter;stroke-width:0.8;"/>
   </g>
   <g id="patch_17">
    <path clip-path="url(#pe4eed0bef9)" d="M 95.26217 305.3595 
L 97.124135 305.3595 
L 97.124135 297.123021 
L 95.26217 297.123021 
z
" style="fill:#4c72b0;opacity:0.4;stroke:#ffffff;stroke-linejoin:miter;stroke-width:0.8;"/>
   </g>
   <g id="patch_18">
    <path clip-path="url(#pe4eed0bef9)" d="M 97.124135 305.3595 
L 98.9861 305.3595 
L 98.9861 296.219017 
L 97.124135 296.219017 
z
" style="fill:#4c72b0;opacity:0.4;stroke:#ffffff;stroke-linejoin:miter;stroke-width:0.8;"/>
   </g>
   <g id="patch_19">
    <path clip-path="url(#pe4eed0bef9)" d="M 98.9861 305.3595 
L 100.848065 305.3595 
L 100.848065 291.297219 
L 98.9861 291.297219 
z
" style="fill:#4c72b0;opacity:0.4;stroke:#ffffff;stroke-linejoin:miter;stroke-width:0.8;"/>
   </g>
   <g id="patch_20">
    <path clip-path="url(#pe4eed0bef9)" d="M 100.848065 305.3595 
L 102.71003 305.3595 
L 102.71003 294.812789 
L 100.848065 294.812789 
z
" style="fill:#4c72b0;opacity:0.4;stroke:#ffffff;stroke-linejoin:miter;stroke-width:0.8;"/>
   </g>
   <g id="patch_21">
    <path clip-path="url(#pe4eed0bef9)" d="M 102.71003 305.3595 
L 104.571995 305.3595 
L 104.571995 291.096329 
L 102.71003 291.096329 
z
" style="fill:#4c72b0;opacity:0.4;stroke:#ffffff;stroke-linejoin:miter;stroke-width:0.8;"/>
   </g>
   <g id="patch_22">
    <path clip-path="url(#pe4eed0bef9)" d="M 104.571995 305.3595 
L 106.43396 305.3595 
L 106.43396 288.283873 
L 104.571995 288.283873 
z
" style="fill:#4c72b0;opacity:0.4;stroke:#ffffff;stroke-linejoin:miter;stroke-width:0.8;"/>
   </g>
   <g id="patch_23">
    <path clip-path="url(#pe4eed0bef9)" d="M 106.43396 305.3595 
L 108.295925 305.3595 
L 108.295925 285.772751 
L 106.43396 285.772751 
z
" style="fill:#4c72b0;opacity:0.4;stroke:#ffffff;stroke-linejoin:miter;stroke-width:0.8;"/>
   </g>
   <g id="patch_24">
    <path clip-path="url(#pe4eed0bef9)" d="M 108.295925 305.3595 
L 110.15789 305.3595 
L 110.15789 282.85985 
L 108.295925 282.85985 
z
" style="fill:#4c72b0;opacity:0.4;stroke:#ffffff;stroke-linejoin:miter;stroke-width:0.8;"/>
   </g>
   <g id="patch_25">
    <path clip-path="url(#pe4eed0bef9)" d="M 110.15789 305.3595 
L 112.019855 305.3595 
L 112.019855 280.348729 
L 110.15789 280.348729 
z
" style="fill:#4c72b0;opacity:0.4;stroke:#ffffff;stroke-linejoin:miter;stroke-width:0.8;"/>
   </g>
   <g id="patch_26">
    <path clip-path="url(#pe4eed0bef9)" d="M 112.019855 305.3595 
L 113.88182 305.3595 
L 113.88182 277.737162 
L 112.019855 277.737162 
z
" style="fill:#4c72b0;opacity:0.4;stroke:#ffffff;stroke-linejoin:miter;stroke-width:0.8;"/>
   </g>
   <g id="patch_27">
    <path clip-path="url(#pe4eed0bef9)" d="M 113.88182 305.3595 
L 115.743785 305.3595 
L 115.743785 270.906912 
L 113.88182 270.906912 
z
" style="fill:#4c72b0;opacity:0.4;stroke:#ffffff;stroke-linejoin:miter;stroke-width:0.8;"/>
   </g>
   <g id="patch_28">
    <path clip-path="url(#pe4eed0bef9)" d="M 115.743785 305.3595 
L 117.60575 305.3595 
L 117.60575 274.723816 
L 115.743785 274.723816 
z
" style="fill:#4c72b0;opacity:0.4;stroke:#ffffff;stroke-linejoin:miter;stroke-width:0.8;"/>
   </g>
   <g id="patch_29">
    <path clip-path="url(#pe4eed0bef9)" d="M 117.60575 305.3595 
L 119.467715 305.3595 
L 119.467715 269.701573 
L 117.60575 269.701573 
z
" style="fill:#4c72b0;opacity:0.4;stroke:#ffffff;stroke-linejoin:miter;stroke-width:0.8;"/>
   </g>
   <g id="patch_30">
    <path clip-path="url(#pe4eed0bef9)" d="M 119.467715 305.3595 
L 121.32968 305.3595 
L 121.32968 267.391341 
L 119.467715 267.391341 
z
" style="fill:#4c72b0;opacity:0.4;stroke:#ffffff;stroke-linejoin:miter;stroke-width:0.8;"/>
   </g>
   <g id="patch_31">
    <path clip-path="url(#pe4eed0bef9)" d="M 121.32968 305.3595 
L 123.191645 305.3595 
L 123.191645 259.757532 
L 121.32968 259.757532 
z
" style="fill:#4c72b0;opacity:0.4;stroke:#ffffff;stroke-linejoin:miter;stroke-width:0.8;"/>
   </g>
   <g id="patch_32">
    <path clip-path="url(#pe4eed0bef9)" d="M 123.191645 305.3595 
L 125.05361 305.3595 
L 125.05361 259.255307 
L 123.191645 259.255307 
z
" style="fill:#4c72b0;opacity:0.4;stroke:#ffffff;stroke-linejoin:miter;stroke-width:0.8;"/>
   </g>
   <g id="patch_33">
    <path clip-path="url(#pe4eed0bef9)" d="M 125.05361 305.3595 
L 126.915575 305.3595 
L 126.915575 259.757532 
L 125.05361 259.757532 
z
" style="fill:#4c72b0;opacity:0.4;stroke:#ffffff;stroke-linejoin:miter;stroke-width:0.8;"/>
   </g>
   <g id="patch_34">
    <path clip-path="url(#pe4eed0bef9)" d="M 126.915575 305.3595 
L 128.77754 305.3595 
L 128.77754 250.114825 
L 126.915575 250.114825 
z
" style="fill:#4c72b0;opacity:0.4;stroke:#ffffff;stroke-linejoin:miter;stroke-width:0.8;"/>
   </g>
   <g id="patch_35">
    <path clip-path="url(#pe4eed0bef9)" d="M 128.77754 305.3595 
L 130.639505 305.3595 
L 130.639505 246.900589 
L 128.77754 246.900589 
z
" style="fill:#4c72b0;opacity:0.4;stroke:#ffffff;stroke-linejoin:miter;stroke-width:0.8;"/>
   </g>
   <g id="patch_36">
    <path clip-path="url(#pe4eed0bef9)" d="M 130.639505 305.3595 
L 132.50147 305.3595 
L 132.50147 245.695251 
L 130.639505 245.695251 
z
" style="fill:#4c72b0;opacity:0.4;stroke:#ffffff;stroke-linejoin:miter;stroke-width:0.8;"/>
   </g>
   <g id="patch_37">
    <path clip-path="url(#pe4eed0bef9)" d="M 132.50147 305.3595 
L 134.363435 305.3595 
L 134.363435 242.17968 
L 132.50147 242.17968 
z
" style="fill:#4c72b0;opacity:0.4;stroke:#ffffff;stroke-linejoin:miter;stroke-width:0.8;"/>
   </g>
   <g id="patch_38">
    <path clip-path="url(#pe4eed0bef9)" d="M 134.363435 305.3595 
L 136.2254 305.3595 
L 136.2254 238.161886 
L 134.363435 238.161886 
z
" style="fill:#4c72b0;opacity:0.4;stroke:#ffffff;stroke-linejoin:miter;stroke-width:0.8;"/>
   </g>
   <g id="patch_39">
    <path clip-path="url(#pe4eed0bef9)" d="M 136.2254 305.3595 
L 138.087365 305.3595 
L 138.087365 232.737863 
L 136.2254 232.737863 
z
" style="fill:#4c72b0;opacity:0.4;stroke:#ffffff;stroke-linejoin:miter;stroke-width:0.8;"/>
   </g>
   <g id="patch_40">
    <path clip-path="url(#pe4eed0bef9)" d="M 138.087365 305.3595 
L 139.94933 305.3595 
L 139.94933 233.340532 
L 138.087365 233.340532 
z
" style="fill:#4c72b0;opacity:0.4;stroke:#ffffff;stroke-linejoin:miter;stroke-width:0.8;"/>
   </g>
   <g id="patch_41">
    <path clip-path="url(#pe4eed0bef9)" d="M 139.94933 305.3595 
L 141.811295 305.3595 
L 141.811295 228.519179 
L 139.94933 228.519179 
z
" style="fill:#4c72b0;opacity:0.4;stroke:#ffffff;stroke-linejoin:miter;stroke-width:0.8;"/>
   </g>
   <g id="patch_42">
    <path clip-path="url(#pe4eed0bef9)" d="M 141.811295 305.3595 
L 143.67326 305.3595 
L 143.67326 217.470244 
L 141.811295 217.470244 
z
" style="fill:#4c72b0;opacity:0.4;stroke:#ffffff;stroke-linejoin:miter;stroke-width:0.8;"/>
   </g>
   <g id="patch_43">
    <path clip-path="url(#pe4eed0bef9)" d="M 143.67326 305.3595 
L 145.535226 305.3595 
L 145.535226 217.168909 
L 143.67326 217.168909 
z
" style="fill:#4c72b0;opacity:0.4;stroke:#ffffff;stroke-linejoin:miter;stroke-width:0.8;"/>
   </g>
   <g id="patch_44">
    <path clip-path="url(#pe4eed0bef9)" d="M 145.535226 305.3595 
L 147.397191 305.3595 
L 147.397191 215.561791 
L 145.535226 215.561791 
z
" style="fill:#4c72b0;opacity:0.4;stroke:#ffffff;stroke-linejoin:miter;stroke-width:0.8;"/>
   </g>
   <g id="patch_45">
    <path clip-path="url(#pe4eed0bef9)" d="M 147.397191 305.3595 
L 149.259156 305.3595 
L 149.259156 203.809742 
L 147.397191 203.809742 
z
" style="fill:#4c72b0;opacity:0.4;stroke:#ffffff;stroke-linejoin:miter;stroke-width:0.8;"/>
   </g>
   <g id="patch_46">
    <path clip-path="url(#pe4eed0bef9)" d="M 149.259156 305.3595 
L 151.121121 305.3595 
L 151.121121 205.316415 
L 149.259156 205.316415 
z
" style="fill:#4c72b0;opacity:0.4;stroke:#ffffff;stroke-linejoin:miter;stroke-width:0.8;"/>
   </g>
   <g id="patch_47">
    <path clip-path="url(#pe4eed0bef9)" d="M 151.121121 305.3595 
L 152.983086 305.3595 
L 152.983086 193.865701 
L 151.121121 193.865701 
z
" style="fill:#4c72b0;opacity:0.4;stroke:#ffffff;stroke-linejoin:miter;stroke-width:0.8;"/>
   </g>
   <g id="patch_48">
    <path clip-path="url(#pe4eed0bef9)" d="M 152.983086 305.3595 
L 154.845051 305.3595 
L 154.845051 189.546571 
L 152.983086 189.546571 
z
" style="fill:#4c72b0;opacity:0.4;stroke:#ffffff;stroke-linejoin:miter;stroke-width:0.8;"/>
   </g>
   <g id="patch_49">
    <path clip-path="url(#pe4eed0bef9)" d="M 154.845051 305.3595 
L 156.707016 305.3595 
L 156.707016 190.952799 
L 154.845051 190.952799 
z
" style="fill:#4c72b0;opacity:0.4;stroke:#ffffff;stroke-linejoin:miter;stroke-width:0.8;"/>
   </g>
   <g id="patch_50">
    <path clip-path="url(#pe4eed0bef9)" d="M 156.707016 305.3595 
L 158.568981 305.3595 
L 158.568981 180.908313 
L 156.707016 180.908313 
z
" style="fill:#4c72b0;opacity:0.4;stroke:#ffffff;stroke-linejoin:miter;stroke-width:0.8;"/>
   </g>
   <g id="patch_51">
    <path clip-path="url(#pe4eed0bef9)" d="M 158.568981 305.3595 
L 160.430946 305.3595 
L 160.430946 180.807868 
L 158.568981 180.807868 
z
" style="fill:#4c72b0;opacity:0.4;stroke:#ffffff;stroke-linejoin:miter;stroke-width:0.8;"/>
   </g>
   <g id="patch_52">
    <path clip-path="url(#pe4eed0bef9)" d="M 160.430946 305.3595 
L 162.292911 305.3595 
L 162.292911 176.990963 
L 160.430946 176.990963 
z
" style="fill:#4c72b0;opacity:0.4;stroke:#ffffff;stroke-linejoin:miter;stroke-width:0.8;"/>
   </g>
   <g id="patch_53">
    <path clip-path="url(#pe4eed0bef9)" d="M 162.292911 305.3595 
L 164.154876 305.3595 
L 164.154876 164.5358 
L 162.292911 164.5358 
z
" style="fill:#4c72b0;opacity:0.4;stroke:#ffffff;stroke-linejoin:miter;stroke-width:0.8;"/>
   </g>
   <g id="patch_54">
    <path clip-path="url(#pe4eed0bef9)" d="M 164.154876 305.3595 
L 166.016841 305.3595 
L 166.016841 161.120675 
L 164.154876 161.120675 
z
" style="fill:#4c72b0;opacity:0.4;stroke:#ffffff;stroke-linejoin:miter;stroke-width:0.8;"/>
   </g>
   <g id="patch_55">
    <path clip-path="url(#pe4eed0bef9)" d="M 166.016841 305.3595 
L 167.878806 305.3595 
L 167.878806 165.942028 
L 166.016841 165.942028 
z
" style="fill:#4c72b0;opacity:0.4;stroke:#ffffff;stroke-linejoin:miter;stroke-width:0.8;"/>
   </g>
   <g id="patch_56">
    <path clip-path="url(#pe4eed0bef9)" d="M 167.878806 305.3595 
L 169.740771 305.3595 
L 169.740771 153.486865 
L 167.878806 153.486865 
z
" style="fill:#4c72b0;opacity:0.4;stroke:#ffffff;stroke-linejoin:miter;stroke-width:0.8;"/>
   </g>
   <g id="patch_57">
    <path clip-path="url(#pe4eed0bef9)" d="M 169.740771 305.3595 
L 171.602736 305.3595 
L 171.602736 150.272629 
L 169.740771 150.272629 
z
" style="fill:#4c72b0;opacity:0.4;stroke:#ffffff;stroke-linejoin:miter;stroke-width:0.8;"/>
   </g>
   <g id="patch_58">
    <path clip-path="url(#pe4eed0bef9)" d="M 171.602736 305.3595 
L 173.464701 305.3595 
L 173.464701 146.053945 
L 171.602736 146.053945 
z
" style="fill:#4c72b0;opacity:0.4;stroke:#ffffff;stroke-linejoin:miter;stroke-width:0.8;"/>
   </g>
   <g id="patch_59">
    <path clip-path="url(#pe4eed0bef9)" d="M 173.464701 305.3595 
L 175.326666 305.3595 
L 175.326666 136.411238 
L 173.464701 136.411238 
z
" style="fill:#4c72b0;opacity:0.4;stroke:#ffffff;stroke-linejoin:miter;stroke-width:0.8;"/>
   </g>
   <g id="patch_60">
    <path clip-path="url(#pe4eed0bef9)" d="M 175.326666 305.3595 
L 177.188631 305.3595 
L 177.188631 136.210348 
L 175.326666 136.210348 
z
" style="fill:#4c72b0;opacity:0.4;stroke:#ffffff;stroke-linejoin:miter;stroke-width:0.8;"/>
   </g>
   <g id="patch_61">
    <path clip-path="url(#pe4eed0bef9)" d="M 177.188631 305.3595 
L 179.050596 305.3595 
L 179.050596 133.799672 
L 177.188631 133.799672 
z
" style="fill:#4c72b0;opacity:0.4;stroke:#ffffff;stroke-linejoin:miter;stroke-width:0.8;"/>
   </g>
   <g id="patch_62">
    <path clip-path="url(#pe4eed0bef9)" d="M 179.050596 305.3595 
L 180.912561 305.3595 
L 180.912561 130.384546 
L 179.050596 130.384546 
z
" style="fill:#4c72b0;opacity:0.4;stroke:#ffffff;stroke-linejoin:miter;stroke-width:0.8;"/>
   </g>
   <g id="patch_63">
    <path clip-path="url(#pe4eed0bef9)" d="M 180.912561 305.3595 
L 182.774526 305.3595 
L 182.774526 119.034277 
L 180.912561 119.034277 
z
" style="fill:#4c72b0;opacity:0.4;stroke:#ffffff;stroke-linejoin:miter;stroke-width:0.8;"/>
   </g>
   <g id="patch_64">
    <path clip-path="url(#pe4eed0bef9)" d="M 182.774526 305.3595 
L 184.636491 305.3595 
L 184.636491 124.558744 
L 182.774526 124.558744 
z
" style="fill:#4c72b0;opacity:0.4;stroke:#ffffff;stroke-linejoin:miter;stroke-width:0.8;"/>
   </g>
   <g id="patch_65">
    <path clip-path="url(#pe4eed0bef9)" d="M 184.636491 305.3595 
L 186.498456 305.3595 
L 186.498456 115.719596 
L 184.636491 115.719596 
z
" style="fill:#4c72b0;opacity:0.4;stroke:#ffffff;stroke-linejoin:miter;stroke-width:0.8;"/>
   </g>
   <g id="patch_66">
    <path clip-path="url(#pe4eed0bef9)" d="M 186.498456 305.3595 
L 188.360421 305.3595 
L 188.360421 105.875999 
L 186.498456 105.875999 
z
" style="fill:#4c72b0;opacity:0.4;stroke:#ffffff;stroke-linejoin:miter;stroke-width:0.8;"/>
   </g>
   <g id="patch_67">
    <path clip-path="url(#pe4eed0bef9)" d="M 188.360421 305.3595 
L 190.222386 305.3595 
L 190.222386 102.862653 
L 188.360421 102.862653 
z
" style="fill:#4c72b0;opacity:0.4;stroke:#ffffff;stroke-linejoin:miter;stroke-width:0.8;"/>
   </g>
   <g id="patch_68">
    <path clip-path="url(#pe4eed0bef9)" d="M 190.222386 305.3595 
L 192.084351 305.3595 
L 192.084351 106.780003 
L 190.222386 106.780003 
z
" style="fill:#4c72b0;opacity:0.4;stroke:#ffffff;stroke-linejoin:miter;stroke-width:0.8;"/>
   </g>
   <g id="patch_69">
    <path clip-path="url(#pe4eed0bef9)" d="M 192.084351 305.3595 
L 193.946316 305.3595 
L 193.946316 93.621726 
L 192.084351 93.621726 
z
" style="fill:#4c72b0;opacity:0.4;stroke:#ffffff;stroke-linejoin:miter;stroke-width:0.8;"/>
   </g>
   <g id="patch_70">
    <path clip-path="url(#pe4eed0bef9)" d="M 193.946316 305.3595 
L 195.808281 305.3595 
L 195.808281 92.617277 
L 193.946316 92.617277 
z
" style="fill:#4c72b0;opacity:0.4;stroke:#ffffff;stroke-linejoin:miter;stroke-width:0.8;"/>
   </g>
   <g id="patch_71">
    <path clip-path="url(#pe4eed0bef9)" d="M 195.808281 305.3595 
L 197.670247 305.3595 
L 197.670247 90.507935 
L 195.808281 90.507935 
z
" style="fill:#4c72b0;opacity:0.4;stroke:#ffffff;stroke-linejoin:miter;stroke-width:0.8;"/>
   </g>
   <g id="patch_72">
    <path clip-path="url(#pe4eed0bef9)" d="M 197.670247 305.3595 
L 199.532212 305.3595 
L 199.532212 75.54165 
L 197.670247 75.54165 
z
" style="fill:#4c72b0;opacity:0.4;stroke:#ffffff;stroke-linejoin:miter;stroke-width:0.8;"/>
   </g>
   <g id="patch_73">
    <path clip-path="url(#pe4eed0bef9)" d="M 199.532212 305.3595 
L 201.394177 305.3595 
L 201.394177 86.49014 
L 199.532212 86.49014 
z
" style="fill:#4c72b0;opacity:0.4;stroke:#ffffff;stroke-linejoin:miter;stroke-width:0.8;"/>
   </g>
   <g id="patch_74">
    <path clip-path="url(#pe4eed0bef9)" d="M 201.394177 305.3595 
L 203.256142 305.3595 
L 203.256142 76.445654 
L 201.394177 76.445654 
z
" style="fill:#4c72b0;opacity:0.4;stroke:#ffffff;stroke-linejoin:miter;stroke-width:0.8;"/>
   </g>
   <g id="patch_75">
    <path clip-path="url(#pe4eed0bef9)" d="M 203.256142 305.3595 
L 205.118107 305.3595 
L 205.118107 72.528304 
L 203.256142 72.528304 
z
" style="fill:#4c72b0;opacity:0.4;stroke:#ffffff;stroke-linejoin:miter;stroke-width:0.8;"/>
   </g>
   <g id="patch_76">
    <path clip-path="url(#pe4eed0bef9)" d="M 205.118107 305.3595 
L 206.980072 305.3595 
L 206.980072 73.030529 
L 205.118107 73.030529 
z
" style="fill:#4c72b0;opacity:0.4;stroke:#ffffff;stroke-linejoin:miter;stroke-width:0.8;"/>
   </g>
   <g id="patch_77">
    <path clip-path="url(#pe4eed0bef9)" d="M 206.980072 305.3595 
L 208.842037 305.3595 
L 208.842037 71.423411 
L 206.980072 71.423411 
z
" style="fill:#4c72b0;opacity:0.4;stroke:#ffffff;stroke-linejoin:miter;stroke-width:0.8;"/>
   </g>
   <g id="patch_78">
    <path clip-path="url(#pe4eed0bef9)" d="M 208.842037 305.3595 
L 210.704002 305.3595 
L 210.704002 66.602057 
L 208.842037 66.602057 
z
" style="fill:#4c72b0;opacity:0.4;stroke:#ffffff;stroke-linejoin:miter;stroke-width:0.8;"/>
   </g>
   <g id="patch_79">
    <path clip-path="url(#pe4eed0bef9)" d="M 210.704002 305.3595 
L 212.565967 305.3595 
L 212.565967 65.095384 
L 210.704002 65.095384 
z
" style="fill:#4c72b0;opacity:0.4;stroke:#ffffff;stroke-linejoin:miter;stroke-width:0.8;"/>
   </g>
   <g id="patch_80">
    <path clip-path="url(#pe4eed0bef9)" d="M 212.565967 305.3595 
L 214.427932 305.3595 
L 214.427932 56.557571 
L 212.565967 56.557571 
z
" style="fill:#4c72b0;opacity:0.4;stroke:#ffffff;stroke-linejoin:miter;stroke-width:0.8;"/>
   </g>
   <g id="patch_81">
    <path clip-path="url(#pe4eed0bef9)" d="M 214.427932 305.3595 
L 216.289897 305.3595 
L 216.289897 56.95935 
L 214.427932 56.95935 
z
" style="fill:#4c72b0;opacity:0.4;stroke:#ffffff;stroke-linejoin:miter;stroke-width:0.8;"/>
   </g>
   <g id="patch_82">
    <path clip-path="url(#pe4eed0bef9)" d="M 216.289897 305.3595 
L 218.151862 305.3595 
L 218.151862 47.919313 
L 216.289897 47.919313 
z
" style="fill:#4c72b0;opacity:0.4;stroke:#ffffff;stroke-linejoin:miter;stroke-width:0.8;"/>
   </g>
   <g id="patch_83">
    <path clip-path="url(#pe4eed0bef9)" d="M 218.151862 305.3595 
L 220.013827 305.3595 
L 220.013827 51.434883 
L 218.151862 51.434883 
z
" style="fill:#4c72b0;opacity:0.4;stroke:#ffffff;stroke-linejoin:miter;stroke-width:0.8;"/>
   </g>
   <g id="patch_84">
    <path clip-path="url(#pe4eed0bef9)" d="M 220.013827 305.3595 
L 221.875792 305.3595 
L 221.875792 60.374476 
L 220.013827 60.374476 
z
" style="fill:#4c72b0;opacity:0.4;stroke:#ffffff;stroke-linejoin:miter;stroke-width:0.8;"/>
   </g>
   <g id="patch_85">
    <path clip-path="url(#pe4eed0bef9)" d="M 221.875792 305.3595 
L 223.737757 305.3595 
L 223.737757 49.827765 
L 221.875792 49.827765 
z
" style="fill:#4c72b0;opacity:0.4;stroke:#ffffff;stroke-linejoin:miter;stroke-width:0.8;"/>
   </g>
   <g id="patch_86">
    <path clip-path="url(#pe4eed0bef9)" d="M 223.737757 305.3595 
L 225.599722 305.3595 
L 225.599722 46.513084 
L 223.737757 46.513084 
z
" style="fill:#4c72b0;opacity:0.4;stroke:#ffffff;stroke-linejoin:miter;stroke-width:0.8;"/>
   </g>
   <g id="patch_87">
    <path clip-path="url(#pe4eed0bef9)" d="M 225.599722 305.3595 
L 227.461687 305.3595 
L 227.461687 52.941556 
L 225.599722 52.941556 
z
" style="fill:#4c72b0;opacity:0.4;stroke:#ffffff;stroke-linejoin:miter;stroke-width:0.8;"/>
   </g>
   <g id="patch_88">
    <path clip-path="url(#pe4eed0bef9)" d="M 227.461687 305.3595 
L 229.323652 305.3595 
L 229.323652 35.765484 
L 227.461687 35.765484 
z
" style="fill:#4c72b0;opacity:0.4;stroke:#ffffff;stroke-linejoin:miter;stroke-width:0.8;"/>
   </g>
   <g id="patch_89">
    <path clip-path="url(#pe4eed0bef9)" d="M 229.323652 305.3595 
L 231.185617 305.3595 
L 231.185617 38.97972 
L 229.323652 38.97972 
z
" style="fill:#4c72b0;opacity:0.4;stroke:#ffffff;stroke-linejoin:miter;stroke-width:0.8;"/>
   </g>
   <g id="patch_90">
    <path clip-path="url(#pe4eed0bef9)" d="M 231.185617 305.3595 
L 233.047582 305.3595 
L 233.047582 29.236568 
L 231.185617 29.236568 
z
" style="fill:#4c72b0;opacity:0.4;stroke:#ffffff;stroke-linejoin:miter;stroke-width:0.8;"/>
   </g>
   <g id="patch_91">
    <path clip-path="url(#pe4eed0bef9)" d="M 233.047582 305.3595 
L 234.909547 305.3595 
L 234.909547 37.171712 
L 233.047582 37.171712 
z
" style="fill:#4c72b0;opacity:0.4;stroke:#ffffff;stroke-linejoin:miter;stroke-width:0.8;"/>
   </g>
   <g id="patch_92">
    <path clip-path="url(#pe4eed0bef9)" d="M 234.909547 305.3595 
L 236.771512 305.3595 
L 236.771512 37.774381 
L 234.909547 37.774381 
z
" style="fill:#4c72b0;opacity:0.4;stroke:#ffffff;stroke-linejoin:miter;stroke-width:0.8;"/>
   </g>
   <g id="patch_93">
    <path clip-path="url(#pe4eed0bef9)" d="M 236.771512 305.3595 
L 238.633477 305.3595 
L 238.633477 34.560146 
L 236.771512 34.560146 
z
" style="fill:#4c72b0;opacity:0.4;stroke:#ffffff;stroke-linejoin:miter;stroke-width:0.8;"/>
   </g>
   <g id="patch_94">
    <path clip-path="url(#pe4eed0bef9)" d="M 238.633477 305.3595 
L 240.495442 305.3595 
L 240.495442 31.14502 
L 238.633477 31.14502 
z
" style="fill:#4c72b0;opacity:0.4;stroke:#ffffff;stroke-linejoin:miter;stroke-width:0.8;"/>
   </g>
   <g id="patch_95">
    <path clip-path="url(#pe4eed0bef9)" d="M 240.495442 305.3595 
L 242.357407 305.3595 
L 242.357407 37.774381 
L 240.495442 37.774381 
z
" style="fill:#4c72b0;opacity:0.4;stroke:#ffffff;stroke-linejoin:miter;stroke-width:0.8;"/>
   </g>
   <g id="patch_96">
    <path clip-path="url(#pe4eed0bef9)" d="M 242.357407 305.3595 
L 244.219372 305.3595 
L 244.219372 30.743241 
L 242.357407 30.743241 
z
" style="fill:#4c72b0;opacity:0.4;stroke:#ffffff;stroke-linejoin:miter;stroke-width:0.8;"/>
   </g>
   <g id="patch_97">
    <path clip-path="url(#pe4eed0bef9)" d="M 244.219372 305.3595 
L 246.081337 305.3595 
L 246.081337 27.026781 
L 244.219372 27.026781 
z
" style="fill:#4c72b0;opacity:0.4;stroke:#ffffff;stroke-linejoin:miter;stroke-width:0.8;"/>
   </g>
   <g id="patch_98">
    <path clip-path="url(#pe4eed0bef9)" d="M 246.081337 305.3595 
L 247.943302 305.3595 
L 247.943302 24.415214 
L 246.081337 24.415214 
z
" style="fill:#4c72b0;opacity:0.4;stroke:#ffffff;stroke-linejoin:miter;stroke-width:0.8;"/>
   </g>
   <g id="patch_99">
    <path clip-path="url(#pe4eed0bef9)" d="M 247.943302 305.3595 
L 249.805267 305.3595 
L 249.805267 28.332564 
L 247.943302 28.332564 
z
" style="fill:#4c72b0;opacity:0.4;stroke:#ffffff;stroke-linejoin:miter;stroke-width:0.8;"/>
   </g>
   <g id="patch_100">
    <path clip-path="url(#pe4eed0bef9)" d="M 249.805267 305.3595 
L 251.667233 305.3595 
L 251.667233 29.337013 
L 249.805267 29.337013 
z
" style="fill:#4c72b0;opacity:0.4;stroke:#ffffff;stroke-linejoin:miter;stroke-width:0.8;"/>
   </g>
   <g id="patch_101">
    <path clip-path="url(#pe4eed0bef9)" d="M 251.667233 305.3595 
L 253.529198 305.3595 
L 253.529198 26.323667 
L 251.667233 26.323667 
z
" style="fill:#4c72b0;opacity:0.4;stroke:#ffffff;stroke-linejoin:miter;stroke-width:0.8;"/>
   </g>
   <g id="patch_102">
    <path clip-path="url(#pe4eed0bef9)" d="M 253.529198 305.3595 
L 255.391163 305.3595 
L 255.391163 32.350359 
L 253.529198 32.350359 
z
" style="fill:#4c72b0;opacity:0.4;stroke:#ffffff;stroke-linejoin:miter;stroke-width:0.8;"/>
   </g>
   <g id="patch_103">
    <path clip-path="url(#pe4eed0bef9)" d="M 255.391163 305.3595 
L 257.253128 305.3595 
L 257.253128 30.441906 
L 255.391163 30.441906 
z
" style="fill:#4c72b0;opacity:0.4;stroke:#ffffff;stroke-linejoin:miter;stroke-width:0.8;"/>
   </g>
   <g id="patch_104">
    <path clip-path="url(#pe4eed0bef9)" d="M 257.253128 305.3595 
L 259.115093 305.3595 
L 259.115093 31.446355 
L 257.253128 31.446355 
z
" style="fill:#4c72b0;opacity:0.4;stroke:#ffffff;stroke-linejoin:miter;stroke-width:0.8;"/>
   </g>
   <g id="patch_105">
    <path clip-path="url(#pe4eed0bef9)" d="M 259.115093 305.3595 
L 260.977058 305.3595 
L 260.977058 35.162815 
L 259.115093 35.162815 
z
" style="fill:#4c72b0;opacity:0.4;stroke:#ffffff;stroke-linejoin:miter;stroke-width:0.8;"/>
   </g>
   <g id="patch_106">
    <path clip-path="url(#pe4eed0bef9)" d="M 260.977058 305.3595 
L 262.839023 305.3595 
L 262.839023 32.651693 
L 260.977058 32.651693 
z
" style="fill:#4c72b0;opacity:0.4;stroke:#ffffff;stroke-linejoin:miter;stroke-width:0.8;"/>
   </g>
   <g id="patch_107">
    <path clip-path="url(#pe4eed0bef9)" d="M 262.839023 305.3595 
L 264.700988 305.3595 
L 264.700988 31.747689 
L 262.839023 31.747689 
z
" style="fill:#4c72b0;opacity:0.4;stroke:#ffffff;stroke-linejoin:miter;stroke-width:0.8;"/>
   </g>
   <g id="patch_108">
    <path clip-path="url(#pe4eed0bef9)" d="M 264.700988 305.3595 
L 266.562953 305.3595 
L 266.562953 27.22767 
L 264.700988 27.22767 
z
" style="fill:#4c72b0;opacity:0.4;stroke:#ffffff;stroke-linejoin:miter;stroke-width:0.8;"/>
   </g>
   <g id="patch_109">
    <path clip-path="url(#pe4eed0bef9)" d="M 266.562953 305.3595 
L 268.424918 305.3595 
L 268.424918 38.075716 
L 266.562953 38.075716 
z
" style="fill:#4c72b0;opacity:0.4;stroke:#ffffff;stroke-linejoin:miter;stroke-width:0.8;"/>
   </g>
   <g id="patch_110">
    <path clip-path="url(#pe4eed0bef9)" d="M 268.424918 305.3595 
L 270.286883 305.3595 
L 270.286883 45.006411 
L 268.424918 45.006411 
z
" style="fill:#4c72b0;opacity:0.4;stroke:#ffffff;stroke-linejoin:miter;stroke-width:0.8;"/>
   </g>
   <g id="patch_111">
    <path clip-path="url(#pe4eed0bef9)" d="M 270.286883 305.3595 
L 272.148848 305.3595 
L 272.148848 44.504187 
L 270.286883 44.504187 
z
" style="fill:#4c72b0;opacity:0.4;stroke:#ffffff;stroke-linejoin:miter;stroke-width:0.8;"/>
   </g>
   <g id="patch_112">
    <path clip-path="url(#pe4eed0bef9)" d="M 272.148848 305.3595 
L 274.010813 305.3595 
L 274.010813 47.718423 
L 272.148848 47.718423 
z
" style="fill:#4c72b0;opacity:0.4;stroke:#ffffff;stroke-linejoin:miter;stroke-width:0.8;"/>
   </g>
   <g id="patch_113">
    <path clip-path="url(#pe4eed0bef9)" d="M 274.010813 305.3595 
L 275.872778 305.3595 
L 275.872778 47.718423 
L 274.010813 47.718423 
z
" style="fill:#4c72b0;opacity:0.4;stroke:#ffffff;stroke-linejoin:miter;stroke-width:0.8;"/>
   </g>
   <g id="patch_114">
    <path clip-path="url(#pe4eed0bef9)" d="M 275.872778 305.3595 
L 277.734743 305.3595 
L 277.734743 51.434883 
L 275.872778 51.434883 
z
" style="fill:#4c72b0;opacity:0.4;stroke:#ffffff;stroke-linejoin:miter;stroke-width:0.8;"/>
   </g>
   <g id="patch_115">
    <path clip-path="url(#pe4eed0bef9)" d="M 277.734743 305.3595 
L 279.596708 305.3595 
L 279.596708 49.92821 
L 277.734743 49.92821 
z
" style="fill:#4c72b0;opacity:0.4;stroke:#ffffff;stroke-linejoin:miter;stroke-width:0.8;"/>
   </g>
   <g id="patch_116">
    <path clip-path="url(#pe4eed0bef9)" d="M 279.596708 305.3595 
L 281.458673 305.3595 
L 281.458673 56.256236 
L 279.596708 56.256236 
z
" style="fill:#4c72b0;opacity:0.4;stroke:#ffffff;stroke-linejoin:miter;stroke-width:0.8;"/>
   </g>
   <g id="patch_117">
    <path clip-path="url(#pe4eed0bef9)" d="M 281.458673 305.3595 
L 283.320638 305.3595 
L 283.320638 65.999388 
L 281.458673 65.999388 
z
" style="fill:#4c72b0;opacity:0.4;stroke:#ffffff;stroke-linejoin:miter;stroke-width:0.8;"/>
   </g>
   <g id="patch_118">
    <path clip-path="url(#pe4eed0bef9)" d="M 283.320638 305.3595 
L 285.182603 305.3595 
L 285.182603 60.8767 
L 283.320638 60.8767 
z
" style="fill:#4c72b0;opacity:0.4;stroke:#ffffff;stroke-linejoin:miter;stroke-width:0.8;"/>
   </g>
   <g id="patch_119">
    <path clip-path="url(#pe4eed0bef9)" d="M 285.182603 305.3595 
L 287.044568 305.3595 
L 287.044568 50.731769 
L 285.182603 50.731769 
z
" style="fill:#4c72b0;opacity:0.4;stroke:#ffffff;stroke-linejoin:miter;stroke-width:0.8;"/>
   </g>
   <g id="patch_120">
    <path clip-path="url(#pe4eed0bef9)" d="M 287.044568 305.3595 
L 288.906533 305.3595 
L 288.906533 64.894495 
L 287.044568 64.894495 
z
" style="fill:#4c72b0;opacity:0.4;stroke:#ffffff;stroke-linejoin:miter;stroke-width:0.8;"/>
   </g>
   <g id="patch_121">
    <path clip-path="url(#pe4eed0bef9)" d="M 288.906533 305.3595 
L 290.768498 305.3595 
L 290.768498 69.113179 
L 288.906533 69.113179 
z
" style="fill:#4c72b0;opacity:0.4;stroke:#ffffff;stroke-linejoin:miter;stroke-width:0.8;"/>
   </g>
   <g id="patch_122">
    <path clip-path="url(#pe4eed0bef9)" d="M 290.768498 305.3595 
L 292.630463 305.3595 
L 292.630463 69.916738 
L 290.768498 69.916738 
z
" style="fill:#4c72b0;opacity:0.4;stroke:#ffffff;stroke-linejoin:miter;stroke-width:0.8;"/>
   </g>
   <g id="patch_123">
    <path clip-path="url(#pe4eed0bef9)" d="M 292.630463 305.3595 
L 294.492428 305.3595 
L 294.492428 86.188806 
L 292.630463 86.188806 
z
" style="fill:#4c72b0;opacity:0.4;stroke:#ffffff;stroke-linejoin:miter;stroke-width:0.8;"/>
   </g>
   <g id="patch_124">
    <path clip-path="url(#pe4eed0bef9)" d="M 294.492428 305.3595 
L 296.354393 305.3595 
L 296.354393 75.039426 
L 294.492428 75.039426 
z
" style="fill:#4c72b0;opacity:0.4;stroke:#ffffff;stroke-linejoin:miter;stroke-width:0.8;"/>
   </g>
   <g id="patch_125">
    <path clip-path="url(#pe4eed0bef9)" d="M 296.354393 305.3595 
L 298.216358 305.3595 
L 298.216358 79.358555 
L 296.354393 79.358555 
z
" style="fill:#4c72b0;opacity:0.4;stroke:#ffffff;stroke-linejoin:miter;stroke-width:0.8;"/>
   </g>
   <g id="patch_126">
    <path clip-path="url(#pe4eed0bef9)" d="M 298.216358 305.3595 
L 300.078323 305.3595 
L 300.078323 86.89192 
L 298.216358 86.89192 
z
" style="fill:#4c72b0;opacity:0.4;stroke:#ffffff;stroke-linejoin:miter;stroke-width:0.8;"/>
   </g>
   <g id="patch_127">
    <path clip-path="url(#pe4eed0bef9)" d="M 300.078323 305.3595 
L 301.940288 305.3595 
L 301.940288 91.010159 
L 300.078323 91.010159 
z
" style="fill:#4c72b0;opacity:0.4;stroke:#ffffff;stroke-linejoin:miter;stroke-width:0.8;"/>
   </g>
   <g id="patch_128">
    <path clip-path="url(#pe4eed0bef9)" d="M 301.940288 305.3595 
L 303.802253 305.3595 
L 303.802253 93.420836 
L 301.940288 93.420836 
z
" style="fill:#4c72b0;opacity:0.4;stroke:#ffffff;stroke-linejoin:miter;stroke-width:0.8;"/>
   </g>
   <g id="patch_129">
    <path clip-path="url(#pe4eed0bef9)" d="M 303.802253 305.3595 
L 305.664219 305.3595 
L 305.664219 98.141745 
L 303.802253 98.141745 
z
" style="fill:#4c72b0;opacity:0.4;stroke:#ffffff;stroke-linejoin:miter;stroke-width:0.8;"/>
   </g>
   <g id="patch_130">
    <path clip-path="url(#pe4eed0bef9)" d="M 305.664219 305.3595 
L 307.526184 305.3595 
L 307.526184 92.215498 
L 305.664219 92.215498 
z
" style="fill:#4c72b0;opacity:0.4;stroke:#ffffff;stroke-linejoin:miter;stroke-width:0.8;"/>
   </g>
   <g id="patch_131">
    <path clip-path="url(#pe4eed0bef9)" d="M 307.526184 305.3595 
L 309.388149 305.3595 
L 309.388149 98.643969 
L 307.526184 98.643969 
z
" style="fill:#4c72b0;opacity:0.4;stroke:#ffffff;stroke-linejoin:miter;stroke-width:0.8;"/>
   </g>
   <g id="patch_132">
    <path clip-path="url(#pe4eed0bef9)" d="M 309.388149 305.3595 
L 311.250114 305.3595 
L 311.250114 106.076889 
L 309.388149 106.076889 
z
" style="fill:#4c72b0;opacity:0.4;stroke:#ffffff;stroke-linejoin:miter;stroke-width:0.8;"/>
   </g>
   <g id="patch_133">
    <path clip-path="url(#pe4eed0bef9)" d="M 311.250114 305.3595 
L 313.112079 305.3595 
L 313.112079 115.719596 
L 311.250114 115.719596 
z
" style="fill:#4c72b0;opacity:0.4;stroke:#ffffff;stroke-linejoin:miter;stroke-width:0.8;"/>
   </g>
   <g id="patch_134">
    <path clip-path="url(#pe4eed0bef9)" d="M 313.112079 305.3595 
L 314.974044 305.3595 
L 314.974044 114.212923 
L 313.112079 114.212923 
z
" style="fill:#4c72b0;opacity:0.4;stroke:#ffffff;stroke-linejoin:miter;stroke-width:0.8;"/>
   </g>
   <g id="patch_135">
    <path clip-path="url(#pe4eed0bef9)" d="M 314.974044 305.3595 
L 316.836009 305.3595 
L 316.836009 123.755185 
L 314.974044 123.755185 
z
" style="fill:#4c72b0;opacity:0.4;stroke:#ffffff;stroke-linejoin:miter;stroke-width:0.8;"/>
   </g>
   <g id="patch_136">
    <path clip-path="url(#pe4eed0bef9)" d="M 316.836009 305.3595 
L 318.697974 305.3595 
L 318.697974 134.402341 
L 316.836009 134.402341 
z
" style="fill:#4c72b0;opacity:0.4;stroke:#ffffff;stroke-linejoin:miter;stroke-width:0.8;"/>
   </g>
   <g id="patch_137">
    <path clip-path="url(#pe4eed0bef9)" d="M 318.697974 305.3595 
L 320.559939 305.3595 
L 320.559939 135.105455 
L 318.697974 135.105455 
z
" style="fill:#4c72b0;opacity:0.4;stroke:#ffffff;stroke-linejoin:miter;stroke-width:0.8;"/>
   </g>
   <g id="patch_138">
    <path clip-path="url(#pe4eed0bef9)" d="M 320.559939 305.3595 
L 322.421904 305.3595 
L 322.421904 142.538375 
L 320.559939 142.538375 
z
" style="fill:#4c72b0;opacity:0.4;stroke:#ffffff;stroke-linejoin:miter;stroke-width:0.8;"/>
   </g>
   <g id="patch_139">
    <path clip-path="url(#pe4eed0bef9)" d="M 322.421904 305.3595 
L 324.283869 305.3595 
L 324.283869 145.250386 
L 322.421904 145.250386 
z
" style="fill:#4c72b0;opacity:0.4;stroke:#ffffff;stroke-linejoin:miter;stroke-width:0.8;"/>
   </g>
   <g id="patch_140">
    <path clip-path="url(#pe4eed0bef9)" d="M 324.283869 305.3595 
L 326.145834 305.3595 
L 326.145834 145.75261 
L 324.283869 145.75261 
z
" style="fill:#4c72b0;opacity:0.4;stroke:#ffffff;stroke-linejoin:miter;stroke-width:0.8;"/>
   </g>
   <g id="patch_141">
    <path clip-path="url(#pe4eed0bef9)" d="M 326.145834 305.3595 
L 328.007799 305.3595 
L 328.007799 157.605104 
L 326.145834 157.605104 
z
" style="fill:#4c72b0;opacity:0.4;stroke:#ffffff;stroke-linejoin:miter;stroke-width:0.8;"/>
   </g>
   <g id="patch_142">
    <path clip-path="url(#pe4eed0bef9)" d="M 328.007799 305.3595 
L 329.869764 305.3595 
L 329.869764 154.390869 
L 328.007799 154.390869 
z
" style="fill:#4c72b0;opacity:0.4;stroke:#ffffff;stroke-linejoin:miter;stroke-width:0.8;"/>
   </g>
   <g id="patch_143">
    <path clip-path="url(#pe4eed0bef9)" d="M 329.869764 305.3595 
L 331.731729 305.3595 
L 331.731729 160.919785 
L 329.869764 160.919785 
z
" style="fill:#4c72b0;opacity:0.4;stroke:#ffffff;stroke-linejoin:miter;stroke-width:0.8;"/>
   </g>
   <g id="patch_144">
    <path clip-path="url(#pe4eed0bef9)" d="M 331.731729 305.3595 
L 333.593694 305.3595 
L 333.593694 161.321564 
L 331.731729 161.321564 
z
" style="fill:#4c72b0;opacity:0.4;stroke:#ffffff;stroke-linejoin:miter;stroke-width:0.8;"/>
   </g>
   <g id="patch_145">
    <path clip-path="url(#pe4eed0bef9)" d="M 333.593694 305.3595 
L 335.455659 305.3595 
L 335.455659 166.946477 
L 333.593694 166.946477 
z
" style="fill:#4c72b0;opacity:0.4;stroke:#ffffff;stroke-linejoin:miter;stroke-width:0.8;"/>
   </g>
   <g id="patch_146">
    <path clip-path="url(#pe4eed0bef9)" d="M 335.455659 305.3595 
L 337.317624 305.3595 
L 337.317624 169.859378 
L 335.455659 169.859378 
z
" style="fill:#4c72b0;opacity:0.4;stroke:#ffffff;stroke-linejoin:miter;stroke-width:0.8;"/>
   </g>
   <g id="patch_147">
    <path clip-path="url(#pe4eed0bef9)" d="M 337.317624 305.3595 
L 339.179589 305.3595 
L 339.179589 178.497636 
L 337.317624 178.497636 
z
" style="fill:#4c72b0;opacity:0.4;stroke:#ffffff;stroke-linejoin:miter;stroke-width:0.8;"/>
   </g>
   <g id="patch_148">
    <path clip-path="url(#pe4eed0bef9)" d="M 339.179589 305.3595 
L 341.041554 305.3595 
L 341.041554 185.327887 
L 339.179589 185.327887 
z
" style="fill:#4c72b0;opacity:0.4;stroke:#ffffff;stroke-linejoin:miter;stroke-width:0.8;"/>
   </g>
   <g id="patch_149">
    <path clip-path="url(#pe4eed0bef9)" d="M 341.041554 305.3595 
L 342.903519 305.3595 
L 342.903519 190.952799 
L 341.041554 190.952799 
z
" style="fill:#4c72b0;opacity:0.4;stroke:#ffffff;stroke-linejoin:miter;stroke-width:0.8;"/>
   </g>
   <g id="patch_150">
    <path clip-path="url(#pe4eed0bef9)" d="M 342.903519 305.3595 
L 344.765484 305.3595 
L 344.765484 187.03545 
L 342.903519 187.03545 
z
" style="fill:#4c72b0;opacity:0.4;stroke:#ffffff;stroke-linejoin:miter;stroke-width:0.8;"/>
   </g>
   <g id="patch_151">
    <path clip-path="url(#pe4eed0bef9)" d="M 344.765484 305.3595 
L 346.627449 305.3595 
L 346.627449 198.586609 
L 344.765484 198.586609 
z
" style="fill:#4c72b0;opacity:0.4;stroke:#ffffff;stroke-linejoin:miter;stroke-width:0.8;"/>
   </g>
   <g id="patch_152">
    <path clip-path="url(#pe4eed0bef9)" d="M 346.627449 305.3595 
L 348.489414 305.3595 
L 348.489414 203.608852 
L 346.627449 203.608852 
z
" style="fill:#4c72b0;opacity:0.4;stroke:#ffffff;stroke-linejoin:miter;stroke-width:0.8;"/>
   </g>
   <g id="patch_153">
    <path clip-path="url(#pe4eed0bef9)" d="M 348.489414 305.3595 
L 350.351379 305.3595 
L 350.351379 207.927982 
L 348.489414 207.927982 
z
" style="fill:#4c72b0;opacity:0.4;stroke:#ffffff;stroke-linejoin:miter;stroke-width:0.8;"/>
   </g>
   <g id="patch_154">
    <path clip-path="url(#pe4eed0bef9)" d="M 350.351379 305.3595 
L 352.213344 305.3595 
L 352.213344 210.740438 
L 350.351379 210.740438 
z
" style="fill:#4c72b0;opacity:0.4;stroke:#ffffff;stroke-linejoin:miter;stroke-width:0.8;"/>
   </g>
   <g id="patch_155">
    <path clip-path="url(#pe4eed0bef9)" d="M 352.213344 305.3595 
L 354.075309 305.3595 
L 354.075309 222.090707 
L 352.213344 222.090707 
z
" style="fill:#4c72b0;opacity:0.4;stroke:#ffffff;stroke-linejoin:miter;stroke-width:0.8;"/>
   </g>
   <g id="patch_156">
    <path clip-path="url(#pe4eed0bef9)" d="M 354.075309 305.3595 
L 355.937274 305.3595 
L 355.937274 219.278251 
L 354.075309 219.278251 
z
" style="fill:#4c72b0;opacity:0.4;stroke:#ffffff;stroke-linejoin:miter;stroke-width:0.8;"/>
   </g>
   <g id="patch_157">
    <path clip-path="url(#pe4eed0bef9)" d="M 355.937274 305.3595 
L 357.79924 305.3595 
L 357.79924 227.31384 
L 355.937274 227.31384 
z
" style="fill:#4c72b0;opacity:0.4;stroke:#ffffff;stroke-linejoin:miter;stroke-width:0.8;"/>
   </g>
   <g id="patch_158">
    <path clip-path="url(#pe4eed0bef9)" d="M 357.79924 305.3595 
L 359.661205 305.3595 
L 359.661205 225.104053 
L 357.79924 225.104053 
z
" style="fill:#4c72b0;opacity:0.4;stroke:#ffffff;stroke-linejoin:miter;stroke-width:0.8;"/>
   </g>
   <g id="patch_159">
    <path clip-path="url(#pe4eed0bef9)" d="M 359.661205 305.3595 
L 361.52317 305.3595 
L 361.52317 234.646315 
L 359.661205 234.646315 
z
" style="fill:#4c72b0;opacity:0.4;stroke:#ffffff;stroke-linejoin:miter;stroke-width:0.8;"/>
   </g>
   <g id="patch_160">
    <path clip-path="url(#pe4eed0bef9)" d="M 361.52317 305.3595 
L 363.385135 305.3595 
L 363.385135 237.559217 
L 361.52317 237.559217 
z
" style="fill:#4c72b0;opacity:0.4;stroke:#ffffff;stroke-linejoin:miter;stroke-width:0.8;"/>
   </g>
   <g id="patch_161">
    <path clip-path="url(#pe4eed0bef9)" d="M 363.385135 305.3595 
L 365.2471 305.3595 
L 365.2471 245.393916 
L 363.385135 245.393916 
z
" style="fill:#4c72b0;opacity:0.4;stroke:#ffffff;stroke-linejoin:miter;stroke-width:0.8;"/>
   </g>
   <g id="patch_162">
    <path clip-path="url(#pe4eed0bef9)" d="M 365.2471 305.3595 
L 367.109065 305.3595 
L 367.109065 244.791247 
L 365.2471 244.791247 
z
" style="fill:#4c72b0;opacity:0.4;stroke:#ffffff;stroke-linejoin:miter;stroke-width:0.8;"/>
   </g>
   <g id="patch_163">
    <path clip-path="url(#pe4eed0bef9)" d="M 367.109065 305.3595 
L 368.97103 305.3595 
L 368.97103 249.713045 
L 367.109065 249.713045 
z
" style="fill:#4c72b0;opacity:0.4;stroke:#ffffff;stroke-linejoin:miter;stroke-width:0.8;"/>
   </g>
   <g id="patch_164">
    <path clip-path="url(#pe4eed0bef9)" d="M 368.97103 305.3595 
L 370.832995 305.3595 
L 370.832995 252.625946 
L 368.97103 252.625946 
z
" style="fill:#4c72b0;opacity:0.4;stroke:#ffffff;stroke-linejoin:miter;stroke-width:0.8;"/>
   </g>
   <g id="patch_165">
    <path clip-path="url(#pe4eed0bef9)" d="M 370.832995 305.3595 
L 372.69496 305.3595 
L 372.69496 260.460646 
L 370.832995 260.460646 
z
" style="fill:#4c72b0;opacity:0.4;stroke:#ffffff;stroke-linejoin:miter;stroke-width:0.8;"/>
   </g>
   <g id="patch_166">
    <path clip-path="url(#pe4eed0bef9)" d="M 372.69496 305.3595 
L 374.556925 305.3595 
L 374.556925 259.355752 
L 372.69496 259.355752 
z
" style="fill:#4c72b0;opacity:0.4;stroke:#ffffff;stroke-linejoin:miter;stroke-width:0.8;"/>
   </g>
   <g id="patch_167">
    <path clip-path="url(#pe4eed0bef9)" d="M 374.556925 305.3595 
L 376.41889 305.3595 
L 376.41889 261.665984 
L 374.556925 261.665984 
z
" style="fill:#4c72b0;opacity:0.4;stroke:#ffffff;stroke-linejoin:miter;stroke-width:0.8;"/>
   </g>
   <g id="patch_168">
    <path clip-path="url(#pe4eed0bef9)" d="M 376.41889 305.3595 
L 378.280855 305.3595 
L 378.280855 269.601128 
L 376.41889 269.601128 
z
" style="fill:#4c72b0;opacity:0.4;stroke:#ffffff;stroke-linejoin:miter;stroke-width:0.8;"/>
   </g>
   <g id="patch_169">
    <path clip-path="url(#pe4eed0bef9)" d="M 378.280855 305.3595 
L 380.14282 305.3595 
L 380.14282 272.212695 
L 378.280855 272.212695 
z
" style="fill:#4c72b0;opacity:0.4;stroke:#ffffff;stroke-linejoin:miter;stroke-width:0.8;"/>
   </g>
   <g id="patch_170">
    <path clip-path="url(#pe4eed0bef9)" d="M 380.14282 305.3595 
L 382.004785 305.3595 
L 382.004785 275.326486 
L 380.14282 275.326486 
z
" style="fill:#4c72b0;opacity:0.4;stroke:#ffffff;stroke-linejoin:miter;stroke-width:0.8;"/>
   </g>
   <g id="patch_171">
    <path clip-path="url(#pe4eed0bef9)" d="M 382.004785 305.3595 
L 383.86675 305.3595 
L 383.86675 274.020702 
L 382.004785 274.020702 
z
" style="fill:#4c72b0;opacity:0.4;stroke:#ffffff;stroke-linejoin:miter;stroke-width:0.8;"/>
   </g>
   <g id="patch_172">
    <path clip-path="url(#pe4eed0bef9)" d="M 383.86675 305.3595 
L 385.728715 305.3595 
L 385.728715 277.737162 
L 383.86675 277.737162 
z
" style="fill:#4c72b0;opacity:0.4;stroke:#ffffff;stroke-linejoin:miter;stroke-width:0.8;"/>
   </g>
   <g id="patch_173">
    <path clip-path="url(#pe4eed0bef9)" d="M 385.728715 305.3595 
L 387.59068 305.3595 
L 387.59068 283.46252 
L 385.728715 283.46252 
z
" style="fill:#4c72b0;opacity:0.4;stroke:#ffffff;stroke-linejoin:miter;stroke-width:0.8;"/>
   </g>
   <g id="patch_174">
    <path clip-path="url(#pe4eed0bef9)" d="M 387.59068 305.3595 
L 389.452645 305.3595 
L 389.452645 285.672307 
L 387.59068 285.672307 
z
" style="fill:#4c72b0;opacity:0.4;stroke:#ffffff;stroke-linejoin:miter;stroke-width:0.8;"/>
   </g>
   <g id="patch_175">
    <path clip-path="url(#pe4eed0bef9)" d="M 389.452645 305.3595 
L 391.31461 305.3595 
L 391.31461 286.57631 
L 389.452645 286.57631 
z
" style="fill:#4c72b0;opacity:0.4;stroke:#ffffff;stroke-linejoin:miter;stroke-width:0.8;"/>
   </g>
   <g id="patch_176">
    <path clip-path="url(#pe4eed0bef9)" d="M 391.31461 305.3595 
L 393.176575 305.3595 
L 393.176575 290.29277 
L 391.31461 290.29277 
z
" style="fill:#4c72b0;opacity:0.4;stroke:#ffffff;stroke-linejoin:miter;stroke-width:0.8;"/>
   </g>
   <g id="patch_177">
    <path clip-path="url(#pe4eed0bef9)" d="M 393.176575 305.3595 
L 395.03854 305.3595 
L 395.03854 290.89544 
L 393.176575 290.89544 
z
" style="fill:#4c72b0;opacity:0.4;stroke:#ffffff;stroke-linejoin:miter;stroke-width:0.8;"/>
   </g>
   <g id="patch_178">
    <path clip-path="url(#pe4eed0bef9)" d="M 395.03854 305.3595 
L 396.900505 305.3595 
L 396.900505 291.297219 
L 395.03854 291.297219 
z
" style="fill:#4c72b0;opacity:0.4;stroke:#ffffff;stroke-linejoin:miter;stroke-width:0.8;"/>
   </g>
   <g id="patch_179">
    <path clip-path="url(#pe4eed0bef9)" d="M 396.900505 305.3595 
L 398.76247 305.3595 
L 398.76247 293.908785 
L 396.900505 293.908785 
z
" style="fill:#4c72b0;opacity:0.4;stroke:#ffffff;stroke-linejoin:miter;stroke-width:0.8;"/>
   </g>
   <g id="patch_180">
    <path clip-path="url(#pe4eed0bef9)" d="M 398.76247 305.3595 
L 400.624435 305.3595 
L 400.624435 294.913234 
L 398.76247 294.913234 
z
" style="fill:#4c72b0;opacity:0.4;stroke:#ffffff;stroke-linejoin:miter;stroke-width:0.8;"/>
   </g>
   <g id="patch_181">
    <path clip-path="url(#pe4eed0bef9)" d="M 400.624435 305.3595 
L 402.4864 305.3595 
L 402.4864 299.332808 
L 400.624435 299.332808 
z
" style="fill:#4c72b0;opacity:0.4;stroke:#ffffff;stroke-linejoin:miter;stroke-width:0.8;"/>
   </g>
   <g id="patch_182">
    <path clip-path="url(#pe4eed0bef9)" d="M 402.4864 305.3595 
L 404.348365 305.3595 
L 404.348365 299.734588 
L 402.4864 299.734588 
z
" style="fill:#4c72b0;opacity:0.4;stroke:#ffffff;stroke-linejoin:miter;stroke-width:0.8;"/>
   </g>
   <g id="patch_183">
    <path clip-path="url(#pe4eed0bef9)" d="M 404.348365 305.3595 
L 406.21033 305.3595 
L 406.21033 299.634143 
L 404.348365 299.634143 
z
" style="fill:#4c72b0;opacity:0.4;stroke:#ffffff;stroke-linejoin:miter;stroke-width:0.8;"/>
   </g>
   <g id="patch_184">
    <path clip-path="url(#pe4eed0bef9)" d="M 406.21033 305.3595 
L 408.072295 305.3595 
L 408.072295 300.538147 
L 406.21033 300.538147 
z
" style="fill:#4c72b0;opacity:0.4;stroke:#ffffff;stroke-linejoin:miter;stroke-width:0.8;"/>
   </g>
   <g id="patch_185">
    <path clip-path="url(#pe4eed0bef9)" d="M 408.072295 305.3595 
L 409.93426 305.3595 
L 409.93426 302.346154 
L 408.072295 302.346154 
z
" style="fill:#4c72b0;opacity:0.4;stroke:#ffffff;stroke-linejoin:miter;stroke-width:0.8;"/>
   </g>
   <g id="patch_186">
    <path clip-path="url(#pe4eed0bef9)" d="M 409.93426 305.3595 
L 411.796226 305.3595 
L 411.796226 302.446599 
L 409.93426 302.446599 
z
" style="fill:#4c72b0;opacity:0.4;stroke:#ffffff;stroke-linejoin:miter;stroke-width:0.8;"/>
   </g>
   <g id="patch_187">
    <path clip-path="url(#pe4eed0bef9)" d="M 411.796226 305.3595 
L 413.658191 305.3595 
L 413.658191 303.551492 
L 411.796226 303.551492 
z
" style="fill:#4c72b0;opacity:0.4;stroke:#ffffff;stroke-linejoin:miter;stroke-width:0.8;"/>
   </g>
   <g id="patch_188">
    <path clip-path="url(#pe4eed0bef9)" d="M 413.658191 305.3595 
L 415.520156 305.3595 
L 415.520156 303.953272 
L 413.658191 303.953272 
z
" style="fill:#4c72b0;opacity:0.4;stroke:#ffffff;stroke-linejoin:miter;stroke-width:0.8;"/>
   </g>
   <g id="patch_189">
    <path clip-path="url(#pe4eed0bef9)" d="M 415.520156 305.3595 
L 417.382121 305.3595 
L 417.382121 304.254606 
L 415.520156 304.254606 
z
" style="fill:#4c72b0;opacity:0.4;stroke:#ffffff;stroke-linejoin:miter;stroke-width:0.8;"/>
   </g>
   <g id="patch_190">
    <path clip-path="url(#pe4eed0bef9)" d="M 417.382121 305.3595 
L 419.244086 305.3595 
L 419.244086 304.756831 
L 417.382121 304.756831 
z
" style="fill:#4c72b0;opacity:0.4;stroke:#ffffff;stroke-linejoin:miter;stroke-width:0.8;"/>
   </g>
   <g id="patch_191">
    <path clip-path="url(#pe4eed0bef9)" d="M 419.244086 305.3595 
L 421.106051 305.3595 
L 421.106051 305.058165 
L 419.244086 305.058165 
z
" style="fill:#4c72b0;opacity:0.4;stroke:#ffffff;stroke-linejoin:miter;stroke-width:0.8;"/>
   </g>
   <g id="patch_192">
    <path clip-path="url(#pe4eed0bef9)" d="M 421.106051 305.3595 
L 422.968016 305.3595 
L 422.968016 305.259055 
L 421.106051 305.259055 
z
" style="fill:#4c72b0;opacity:0.4;stroke:#ffffff;stroke-linejoin:miter;stroke-width:0.8;"/>
   </g>
   <g id="patch_193">
    <path clip-path="url(#pe4eed0bef9)" d="M 422.968016 305.3595 
L 424.829981 305.3595 
L 424.829981 305.259055 
L 422.968016 305.259055 
z
" style="fill:#4c72b0;opacity:0.4;stroke:#ffffff;stroke-linejoin:miter;stroke-width:0.8;"/>
   </g>
   <g id="patch_194">
    <path clip-path="url(#pe4eed0bef9)" d="M 424.829981 305.3595 
L 426.691946 305.3595 
L 426.691946 305.3595 
L 424.829981 305.3595 
z
" style="fill:#4c72b0;opacity:0.4;stroke:#ffffff;stroke-linejoin:miter;stroke-width:0.8;"/>
   </g>
   <g id="patch_195">
    <path clip-path="url(#pe4eed0bef9)" d="M 426.691946 305.3595 
L 428.553911 305.3595 
L 428.553911 305.3595 
L 426.691946 305.3595 
z
" style="fill:#4c72b0;opacity:0.4;stroke:#ffffff;stroke-linejoin:miter;stroke-width:0.8;"/>
   </g>
   <g id="patch_196">
    <path clip-path="url(#pe4eed0bef9)" d="M 428.553911 305.3595 
L 430.415876 305.3595 
L 430.415876 305.3595 
L 428.553911 305.3595 
z
" style="fill:#4c72b0;opacity:0.4;stroke:#ffffff;stroke-linejoin:miter;stroke-width:0.8;"/>
   </g>
   <g id="patch_197">
    <path clip-path="url(#pe4eed0bef9)" d="M 430.415876 305.3595 
L 432.277841 305.3595 
L 432.277841 305.259055 
L 430.415876 305.259055 
z
" style="fill:#4c72b0;opacity:0.4;stroke:#ffffff;stroke-linejoin:miter;stroke-width:0.8;"/>
   </g>
   <g id="patch_198">
    <path d="M 51.0405 305.3595 
L 51.0405 10.368 
" style="fill:none;stroke:#ffffff;stroke-linecap:square;stroke-linejoin:miter;"/>
   </g>
   <g id="patch_199">
    <path d="M 450.432 305.3595 
L 450.432 10.368 
" style="fill:none;stroke:#ffffff;stroke-linecap:square;stroke-linejoin:miter;"/>
   </g>
   <g id="patch_200">
    <path d="M 51.0405 305.3595 
L 450.432 305.3595 
" style="fill:none;stroke:#ffffff;stroke-linecap:square;stroke-linejoin:miter;"/>
   </g>
   <g id="patch_201">
    <path d="M 51.0405 10.368 
L 450.432 10.368 
" style="fill:none;stroke:#ffffff;stroke-linecap:square;stroke-linejoin:miter;"/>
   </g>
  </g>
 </g>
 <defs>
  <clipPath id="pe4eed0bef9">
   <rect height="294.9915" width="399.3915" x="51.0405" y="10.368"/>
  </clipPath>
 </defs>
</svg>
