<?xml version="1.0" encoding="utf-8" standalone="no"?>
<!DOCTYPE svg PUBLIC "-//W3C//DTD SVG 1.1//EN"
  "http://www.w3.org/Graphics/SVG/1.1/DTD/svg11.dtd">
<!-- Created with matplotlib (http://matplotlib.org/) -->
<svg height="345pt" version="1.1" viewBox="0 0 460 345" width="460pt" xmlns="http://www.w3.org/2000/svg" xmlns:xlink="http://www.w3.org/1999/xlink">
 <defs>
  <style type="text/css">
*{stroke-linecap:butt;stroke-linejoin:round;}
  </style>
 </defs>
 <g id="figure_1">
  <g id="patch_1">
   <path d="M 0 345.6 
L 460.8 345.6 
L 460.8 0 
L 0 0 
z
" style="fill:#ffffff;"/>
  </g>
  <g id="axes_1">
   <g id="patch_2">
    <path d="M 58.70175 311.19825 
L 450.432 311.19825 
L 450.432 10.368 
L 58.70175 10.368 
z
" style="fill:#eaeaf2;"/>
   </g>
   <g id="matplotlib.axis_1">
    <g id="xtick_1">
     <g id="line2d_1">
      <path clip-path="url(#p18b190ab2a)" d="M 76.50767 311.19825 
L 76.50767 10.368 
" style="fill:none;stroke:#ffffff;stroke-linecap:round;stroke-width:0.8;"/>
     </g>
     <g id="line2d_2"/>
     <g id="text_1">
      <!-- −1.00 -->
      <defs>
       <path d="M 52.828125 31.203125 
L 5.5625 31.203125 
L 5.5625 39.40625 
L 52.828125 39.40625 
z
" id="ArialMT-2212"/>
       <path d="M 37.25 0 
L 28.46875 0 
L 28.46875 56 
Q 25.296875 52.984375 20.140625 49.953125 
Q 14.984375 46.921875 10.890625 45.40625 
L 10.890625 53.90625 
Q 18.265625 57.375 23.78125 62.296875 
Q 29.296875 67.234375 31.59375 71.875 
L 37.25 71.875 
z
" id="ArialMT-31"/>
       <path d="M 9.078125 0 
L 9.078125 10.015625 
L 19.09375 10.015625 
L 19.09375 0 
z
" id="ArialMT-2e"/>
       <path d="M 4.15625 35.296875 
Q 4.15625 48 6.765625 55.734375 
Q 9.375 63.484375 14.515625 67.671875 
Q 19.671875 71.875 27.484375 71.875 
Q 33.25 71.875 37.59375 69.546875 
Q 41.9375 67.234375 44.765625 62.859375 
Q 47.609375 58.5 49.21875 52.21875 
Q 50.828125 45.953125 50.828125 35.296875 
Q 50.828125 22.703125 48.234375 14.96875 
Q 45.65625 7.234375 40.5 3 
Q 35.359375 -1.21875 27.484375 -1.21875 
Q 17.140625 -1.21875 11.234375 6.203125 
Q 4.15625 15.140625 4.15625 35.296875 
z
M 13.1875 35.296875 
Q 13.1875 17.671875 17.3125 11.828125 
Q 21.4375 6 27.484375 6 
Q 33.546875 6 37.671875 11.859375 
Q 41.796875 17.71875 41.796875 35.296875 
Q 41.796875 52.984375 37.671875 58.78125 
Q 33.546875 64.59375 27.390625 64.59375 
Q 21.34375 64.59375 17.71875 59.46875 
Q 13.1875 52.9375 13.1875 35.296875 
z
" id="ArialMT-30"/>
      </defs>
      <g style="fill:#262626;" transform="translate(66.387045 322.5245)scale(0.08 -0.08)">
       <use xlink:href="#ArialMT-2212"/>
       <use x="58.398438" xlink:href="#ArialMT-31"/>
       <use x="114.013672" xlink:href="#ArialMT-2e"/>
       <use x="141.796875" xlink:href="#ArialMT-30"/>
       <use x="197.412109" xlink:href="#ArialMT-30"/>
      </g>
     </g>
    </g>
    <g id="xtick_2">
     <g id="line2d_3">
      <path clip-path="url(#p18b190ab2a)" d="M 121.022472 311.19825 
L 121.022472 10.368 
" style="fill:none;stroke:#ffffff;stroke-linecap:round;stroke-width:0.8;"/>
     </g>
     <g id="line2d_4"/>
     <g id="text_2">
      <!-- −0.75 -->
      <defs>
       <path d="M 4.734375 62.203125 
L 4.734375 70.65625 
L 51.078125 70.65625 
L 51.078125 63.8125 
Q 44.234375 56.546875 37.515625 44.484375 
Q 30.8125 32.421875 27.15625 19.671875 
Q 24.515625 10.6875 23.78125 0 
L 14.75 0 
Q 14.890625 8.453125 18.0625 20.40625 
Q 21.234375 32.375 27.171875 43.484375 
Q 33.109375 54.59375 39.796875 62.203125 
z
" id="ArialMT-37"/>
       <path d="M 4.15625 18.75 
L 13.375 19.53125 
Q 14.40625 12.796875 18.140625 9.390625 
Q 21.875 6 27.15625 6 
Q 33.5 6 37.890625 10.78125 
Q 42.28125 15.578125 42.28125 23.484375 
Q 42.28125 31 38.0625 35.34375 
Q 33.84375 39.703125 27 39.703125 
Q 22.75 39.703125 19.328125 37.765625 
Q 15.921875 35.84375 13.96875 32.765625 
L 5.71875 33.84375 
L 12.640625 70.609375 
L 48.25 70.609375 
L 48.25 62.203125 
L 19.671875 62.203125 
L 15.828125 42.96875 
Q 22.265625 47.46875 29.34375 47.46875 
Q 38.71875 47.46875 45.15625 40.96875 
Q 51.609375 34.46875 51.609375 24.265625 
Q 51.609375 14.546875 45.953125 7.46875 
Q 39.0625 -1.21875 27.15625 -1.21875 
Q 17.390625 -1.21875 11.203125 4.25 
Q 5.03125 9.71875 4.15625 18.75 
z
" id="ArialMT-35"/>
      </defs>
      <g style="fill:#262626;" transform="translate(110.901847 322.5245)scale(0.08 -0.08)">
       <use xlink:href="#ArialMT-2212"/>
       <use x="58.398438" xlink:href="#ArialMT-30"/>
       <use x="114.013672" xlink:href="#ArialMT-2e"/>
       <use x="141.796875" xlink:href="#ArialMT-37"/>
       <use x="197.412109" xlink:href="#ArialMT-35"/>
      </g>
     </g>
    </g>
    <g id="xtick_3">
     <g id="line2d_5">
      <path clip-path="url(#p18b190ab2a)" d="M 165.537273 311.19825 
L 165.537273 10.368 
" style="fill:none;stroke:#ffffff;stroke-linecap:round;stroke-width:0.8;"/>
     </g>
     <g id="line2d_6"/>
     <g id="text_3">
      <!-- −0.50 -->
      <g style="fill:#262626;" transform="translate(155.416648 322.5245)scale(0.08 -0.08)">
       <use xlink:href="#ArialMT-2212"/>
       <use x="58.398438" xlink:href="#ArialMT-30"/>
       <use x="114.013672" xlink:href="#ArialMT-2e"/>
       <use x="141.796875" xlink:href="#ArialMT-35"/>
       <use x="197.412109" xlink:href="#ArialMT-30"/>
      </g>
     </g>
    </g>
    <g id="xtick_4">
     <g id="line2d_7">
      <path clip-path="url(#p18b190ab2a)" d="M 210.052074 311.19825 
L 210.052074 10.368 
" style="fill:none;stroke:#ffffff;stroke-linecap:round;stroke-width:0.8;"/>
     </g>
     <g id="line2d_8"/>
     <g id="text_4">
      <!-- −0.25 -->
      <defs>
       <path d="M 50.34375 8.453125 
L 50.34375 0 
L 3.03125 0 
Q 2.9375 3.171875 4.046875 6.109375 
Q 5.859375 10.9375 9.828125 15.625 
Q 13.8125 20.3125 21.34375 26.46875 
Q 33.015625 36.03125 37.109375 41.625 
Q 41.21875 47.21875 41.21875 52.203125 
Q 41.21875 57.421875 37.46875 61 
Q 33.734375 64.59375 27.734375 64.59375 
Q 21.390625 64.59375 17.578125 60.78125 
Q 13.765625 56.984375 13.71875 50.25 
L 4.6875 51.171875 
Q 5.609375 61.28125 11.65625 66.578125 
Q 17.71875 71.875 27.9375 71.875 
Q 38.234375 71.875 44.234375 66.15625 
Q 50.25 60.453125 50.25 52 
Q 50.25 47.703125 48.484375 43.546875 
Q 46.734375 39.40625 42.65625 34.8125 
Q 38.578125 30.21875 29.109375 22.21875 
Q 21.1875 15.578125 18.9375 13.203125 
Q 16.703125 10.84375 15.234375 8.453125 
z
" id="ArialMT-32"/>
      </defs>
      <g style="fill:#262626;" transform="translate(199.931449 322.5245)scale(0.08 -0.08)">
       <use xlink:href="#ArialMT-2212"/>
       <use x="58.398438" xlink:href="#ArialMT-30"/>
       <use x="114.013672" xlink:href="#ArialMT-2e"/>
       <use x="141.796875" xlink:href="#ArialMT-32"/>
       <use x="197.412109" xlink:href="#ArialMT-35"/>
      </g>
     </g>
    </g>
    <g id="xtick_5">
     <g id="line2d_9">
      <path clip-path="url(#p18b190ab2a)" d="M 254.566875 311.19825 
L 254.566875 10.368 
" style="fill:none;stroke:#ffffff;stroke-linecap:round;stroke-width:0.8;"/>
     </g>
     <g id="line2d_10"/>
     <g id="text_5">
      <!-- 0.00 -->
      <g style="fill:#262626;" transform="translate(246.7825 322.5245)scale(0.08 -0.08)">
       <use xlink:href="#ArialMT-30"/>
       <use x="55.615234" xlink:href="#ArialMT-2e"/>
       <use x="83.398438" xlink:href="#ArialMT-30"/>
       <use x="139.013672" xlink:href="#ArialMT-30"/>
      </g>
     </g>
    </g>
    <g id="xtick_6">
     <g id="line2d_11">
      <path clip-path="url(#p18b190ab2a)" d="M 299.081676 311.19825 
L 299.081676 10.368 
" style="fill:none;stroke:#ffffff;stroke-linecap:round;stroke-width:0.8;"/>
     </g>
     <g id="line2d_12"/>
     <g id="text_6">
      <!-- 0.25 -->
      <g style="fill:#262626;" transform="translate(291.297301 322.5245)scale(0.08 -0.08)">
       <use xlink:href="#ArialMT-30"/>
       <use x="55.615234" xlink:href="#ArialMT-2e"/>
       <use x="83.398438" xlink:href="#ArialMT-32"/>
       <use x="139.013672" xlink:href="#ArialMT-35"/>
      </g>
     </g>
    </g>
    <g id="xtick_7">
     <g id="line2d_13">
      <path clip-path="url(#p18b190ab2a)" d="M 343.596477 311.19825 
L 343.596477 10.368 
" style="fill:none;stroke:#ffffff;stroke-linecap:round;stroke-width:0.8;"/>
     </g>
     <g id="line2d_14"/>
     <g id="text_7">
      <!-- 0.50 -->
      <g style="fill:#262626;" transform="translate(335.812102 322.5245)scale(0.08 -0.08)">
       <use xlink:href="#ArialMT-30"/>
       <use x="55.615234" xlink:href="#ArialMT-2e"/>
       <use x="83.398438" xlink:href="#ArialMT-35"/>
       <use x="139.013672" xlink:href="#ArialMT-30"/>
      </g>
     </g>
    </g>
    <g id="xtick_8">
     <g id="line2d_15">
      <path clip-path="url(#p18b190ab2a)" d="M 388.111278 311.19825 
L 388.111278 10.368 
" style="fill:none;stroke:#ffffff;stroke-linecap:round;stroke-width:0.8;"/>
     </g>
     <g id="line2d_16"/>
     <g id="text_8">
      <!-- 0.75 -->
      <g style="fill:#262626;" transform="translate(380.326903 322.5245)scale(0.08 -0.08)">
       <use xlink:href="#ArialMT-30"/>
       <use x="55.615234" xlink:href="#ArialMT-2e"/>
       <use x="83.398438" xlink:href="#ArialMT-37"/>
       <use x="139.013672" xlink:href="#ArialMT-35"/>
      </g>
     </g>
    </g>
    <g id="xtick_9">
     <g id="line2d_17">
      <path clip-path="url(#p18b190ab2a)" d="M 432.62608 311.19825 
L 432.62608 10.368 
" style="fill:none;stroke:#ffffff;stroke-linecap:round;stroke-width:0.8;"/>
     </g>
     <g id="line2d_18"/>
     <g id="text_9">
      <!-- 1.00 -->
      <g style="fill:#262626;" transform="translate(424.841705 322.5245)scale(0.08 -0.08)">
       <use xlink:href="#ArialMT-31"/>
       <use x="55.615234" xlink:href="#ArialMT-2e"/>
       <use x="83.398438" xlink:href="#ArialMT-30"/>
       <use x="139.013672" xlink:href="#ArialMT-30"/>
      </g>
     </g>
    </g>
    <g id="text_10">
     <!-- Weight -->
     <defs>
      <path d="M 20.21875 0 
L 1.21875 71.578125 
L 10.9375 71.578125 
L 21.828125 24.65625 
Q 23.578125 17.28125 24.859375 10.015625 
Q 27.59375 21.484375 28.078125 23.25 
L 41.703125 71.578125 
L 53.125 71.578125 
L 63.375 35.359375 
Q 67.234375 21.875 68.953125 10.015625 
Q 70.3125 16.796875 72.515625 25.59375 
L 83.734375 71.578125 
L 93.265625 71.578125 
L 73.640625 0 
L 64.5 0 
L 49.421875 54.546875 
Q 47.515625 61.375 47.171875 62.9375 
Q 46.046875 58.015625 45.0625 54.546875 
L 29.890625 0 
z
" id="ArialMT-57"/>
      <path d="M 42.09375 16.703125 
L 51.171875 15.578125 
Q 49.03125 7.625 43.21875 3.21875 
Q 37.40625 -1.171875 28.375 -1.171875 
Q 17 -1.171875 10.328125 5.828125 
Q 3.65625 12.84375 3.65625 25.484375 
Q 3.65625 38.578125 10.390625 45.796875 
Q 17.140625 53.03125 27.875 53.03125 
Q 38.28125 53.03125 44.875 45.953125 
Q 51.46875 38.875 51.46875 26.03125 
Q 51.46875 25.25 51.421875 23.6875 
L 12.75 23.6875 
Q 13.234375 15.140625 17.578125 10.59375 
Q 21.921875 6.0625 28.421875 6.0625 
Q 33.25 6.0625 36.671875 8.59375 
Q 40.09375 11.140625 42.09375 16.703125 
z
M 13.234375 30.90625 
L 42.1875 30.90625 
Q 41.609375 37.453125 38.875 40.71875 
Q 34.671875 45.796875 27.984375 45.796875 
Q 21.921875 45.796875 17.796875 41.75 
Q 13.671875 37.703125 13.234375 30.90625 
z
" id="ArialMT-65"/>
      <path d="M 6.640625 61.46875 
L 6.640625 71.578125 
L 15.4375 71.578125 
L 15.4375 61.46875 
z
M 6.640625 0 
L 6.640625 51.859375 
L 15.4375 51.859375 
L 15.4375 0 
z
" id="ArialMT-69"/>
      <path d="M 4.984375 -4.296875 
L 13.53125 -5.5625 
Q 14.0625 -9.515625 16.5 -11.328125 
Q 19.78125 -13.765625 25.4375 -13.765625 
Q 31.546875 -13.765625 34.859375 -11.328125 
Q 38.1875 -8.890625 39.359375 -4.5 
Q 40.046875 -1.8125 39.984375 6.78125 
Q 34.234375 0 25.640625 0 
Q 14.9375 0 9.078125 7.71875 
Q 3.21875 15.4375 3.21875 26.21875 
Q 3.21875 33.640625 5.90625 39.90625 
Q 8.59375 46.1875 13.6875 49.609375 
Q 18.796875 53.03125 25.6875 53.03125 
Q 34.859375 53.03125 40.828125 45.609375 
L 40.828125 51.859375 
L 48.921875 51.859375 
L 48.921875 7.03125 
Q 48.921875 -5.078125 46.453125 -10.125 
Q 44 -15.1875 38.640625 -18.109375 
Q 33.296875 -21.046875 25.484375 -21.046875 
Q 16.21875 -21.046875 10.5 -16.875 
Q 4.78125 -12.703125 4.984375 -4.296875 
z
M 12.25 26.859375 
Q 12.25 16.65625 16.296875 11.96875 
Q 20.359375 7.28125 26.46875 7.28125 
Q 32.515625 7.28125 36.609375 11.9375 
Q 40.71875 16.609375 40.71875 26.5625 
Q 40.71875 36.078125 36.5 40.90625 
Q 32.28125 45.75 26.3125 45.75 
Q 20.453125 45.75 16.34375 40.984375 
Q 12.25 36.234375 12.25 26.859375 
z
" id="ArialMT-67"/>
      <path d="M 6.59375 0 
L 6.59375 71.578125 
L 15.375 71.578125 
L 15.375 45.90625 
Q 21.53125 53.03125 30.90625 53.03125 
Q 36.671875 53.03125 40.921875 50.75 
Q 45.171875 48.484375 47 44.484375 
Q 48.828125 40.484375 48.828125 32.859375 
L 48.828125 0 
L 40.046875 0 
L 40.046875 32.859375 
Q 40.046875 39.453125 37.1875 42.453125 
Q 34.328125 45.453125 29.109375 45.453125 
Q 25.203125 45.453125 21.75 43.421875 
Q 18.3125 41.40625 16.84375 37.9375 
Q 15.375 34.46875 15.375 28.375 
L 15.375 0 
z
" id="ArialMT-68"/>
      <path d="M 25.78125 7.859375 
L 27.046875 0.09375 
Q 23.34375 -0.6875 20.40625 -0.6875 
Q 15.625 -0.6875 12.984375 0.828125 
Q 10.359375 2.34375 9.28125 4.8125 
Q 8.203125 7.28125 8.203125 15.1875 
L 8.203125 45.015625 
L 1.765625 45.015625 
L 1.765625 51.859375 
L 8.203125 51.859375 
L 8.203125 64.703125 
L 16.9375 69.96875 
L 16.9375 51.859375 
L 25.78125 51.859375 
L 25.78125 45.015625 
L 16.9375 45.015625 
L 16.9375 14.703125 
Q 16.9375 10.9375 17.40625 9.859375 
Q 17.875 8.796875 18.921875 8.15625 
Q 19.96875 7.515625 21.921875 7.515625 
Q 23.390625 7.515625 25.78125 7.859375 
z
" id="ArialMT-74"/>
     </defs>
     <g style="fill:#262626;" transform="translate(240.873938 334.413375)scale(0.088 -0.088)">
      <use xlink:href="#ArialMT-57"/>
      <use x="94.369141" xlink:href="#ArialMT-65"/>
      <use x="149.984375" xlink:href="#ArialMT-69"/>
      <use x="172.201172" xlink:href="#ArialMT-67"/>
      <use x="227.816406" xlink:href="#ArialMT-68"/>
      <use x="283.431641" xlink:href="#ArialMT-74"/>
     </g>
    </g>
   </g>
   <g id="matplotlib.axis_2">
    <g id="ytick_1">
     <g id="line2d_19">
      <path clip-path="url(#p18b190ab2a)" d="M 58.70175 311.19825 
L 450.432 311.19825 
" style="fill:none;stroke:#ffffff;stroke-linecap:round;stroke-width:0.8;"/>
     </g>
     <g id="line2d_20"/>
     <g id="text_11">
      <!-- 0 -->
      <g style="fill:#262626;" transform="translate(48.653 314.061375)scale(0.08 -0.08)">
       <use xlink:href="#ArialMT-30"/>
      </g>
     </g>
    </g>
    <g id="ytick_2">
     <g id="line2d_21">
      <path clip-path="url(#p18b190ab2a)" d="M 58.70175 269.235911 
L 450.432 269.235911 
" style="fill:none;stroke:#ffffff;stroke-linecap:round;stroke-width:0.8;"/>
     </g>
     <g id="line2d_22"/>
     <g id="text_12">
      <!-- 200000 -->
      <g style="fill:#262626;" transform="translate(26.40925 272.099036)scale(0.08 -0.08)">
       <use xlink:href="#ArialMT-32"/>
       <use x="55.615234" xlink:href="#ArialMT-30"/>
       <use x="111.230469" xlink:href="#ArialMT-30"/>
       <use x="166.845703" xlink:href="#ArialMT-30"/>
       <use x="222.460938" xlink:href="#ArialMT-30"/>
       <use x="278.076172" xlink:href="#ArialMT-30"/>
      </g>
     </g>
    </g>
    <g id="ytick_3">
     <g id="line2d_23">
      <path clip-path="url(#p18b190ab2a)" d="M 58.70175 227.273573 
L 450.432 227.273573 
" style="fill:none;stroke:#ffffff;stroke-linecap:round;stroke-width:0.8;"/>
     </g>
     <g id="line2d_24"/>
     <g id="text_13">
      <!-- 400000 -->
      <defs>
       <path d="M 32.328125 0 
L 32.328125 17.140625 
L 1.265625 17.140625 
L 1.265625 25.203125 
L 33.9375 71.578125 
L 41.109375 71.578125 
L 41.109375 25.203125 
L 50.78125 25.203125 
L 50.78125 17.140625 
L 41.109375 17.140625 
L 41.109375 0 
z
M 32.328125 25.203125 
L 32.328125 57.46875 
L 9.90625 25.203125 
z
" id="ArialMT-34"/>
      </defs>
      <g style="fill:#262626;" transform="translate(26.40925 230.136698)scale(0.08 -0.08)">
       <use xlink:href="#ArialMT-34"/>
       <use x="55.615234" xlink:href="#ArialMT-30"/>
       <use x="111.230469" xlink:href="#ArialMT-30"/>
       <use x="166.845703" xlink:href="#ArialMT-30"/>
       <use x="222.460938" xlink:href="#ArialMT-30"/>
       <use x="278.076172" xlink:href="#ArialMT-30"/>
      </g>
     </g>
    </g>
    <g id="ytick_4">
     <g id="line2d_25">
      <path clip-path="url(#p18b190ab2a)" d="M 58.70175 185.311234 
L 450.432 185.311234 
" style="fill:none;stroke:#ffffff;stroke-linecap:round;stroke-width:0.8;"/>
     </g>
     <g id="line2d_26"/>
     <g id="text_14">
      <!-- 600000 -->
      <defs>
       <path d="M 49.75 54.046875 
L 41.015625 53.375 
Q 39.84375 58.546875 37.703125 60.890625 
Q 34.125 64.65625 28.90625 64.65625 
Q 24.703125 64.65625 21.53125 62.3125 
Q 17.390625 59.28125 14.984375 53.46875 
Q 12.59375 47.65625 12.5 36.921875 
Q 15.671875 41.75 20.265625 44.09375 
Q 24.859375 46.4375 29.890625 46.4375 
Q 38.671875 46.4375 44.84375 39.96875 
Q 51.03125 33.5 51.03125 23.25 
Q 51.03125 16.5 48.125 10.71875 
Q 45.21875 4.9375 40.140625 1.859375 
Q 35.0625 -1.21875 28.609375 -1.21875 
Q 17.625 -1.21875 10.6875 6.859375 
Q 3.765625 14.9375 3.765625 33.5 
Q 3.765625 54.25 11.421875 63.671875 
Q 18.109375 71.875 29.4375 71.875 
Q 37.890625 71.875 43.28125 67.140625 
Q 48.6875 62.40625 49.75 54.046875 
z
M 13.875 23.1875 
Q 13.875 18.65625 15.796875 14.5 
Q 17.71875 10.359375 21.1875 8.171875 
Q 24.65625 6 28.46875 6 
Q 34.03125 6 38.03125 10.484375 
Q 42.046875 14.984375 42.046875 22.703125 
Q 42.046875 30.125 38.078125 34.390625 
Q 34.125 38.671875 28.125 38.671875 
Q 22.171875 38.671875 18.015625 34.390625 
Q 13.875 30.125 13.875 23.1875 
z
" id="ArialMT-36"/>
      </defs>
      <g style="fill:#262626;" transform="translate(26.40925 188.174359)scale(0.08 -0.08)">
       <use xlink:href="#ArialMT-36"/>
       <use x="55.615234" xlink:href="#ArialMT-30"/>
       <use x="111.230469" xlink:href="#ArialMT-30"/>
       <use x="166.845703" xlink:href="#ArialMT-30"/>
       <use x="222.460938" xlink:href="#ArialMT-30"/>
       <use x="278.076172" xlink:href="#ArialMT-30"/>
      </g>
     </g>
    </g>
    <g id="ytick_5">
     <g id="line2d_27">
      <path clip-path="url(#p18b190ab2a)" d="M 58.70175 143.348896 
L 450.432 143.348896 
" style="fill:none;stroke:#ffffff;stroke-linecap:round;stroke-width:0.8;"/>
     </g>
     <g id="line2d_28"/>
     <g id="text_15">
      <!-- 800000 -->
      <defs>
       <path d="M 17.671875 38.8125 
Q 12.203125 40.828125 9.5625 44.53125 
Q 6.9375 48.25 6.9375 53.421875 
Q 6.9375 61.234375 12.546875 66.546875 
Q 18.171875 71.875 27.484375 71.875 
Q 36.859375 71.875 42.578125 66.421875 
Q 48.296875 60.984375 48.296875 53.171875 
Q 48.296875 48.1875 45.671875 44.5 
Q 43.0625 40.828125 37.75 38.8125 
Q 44.34375 36.671875 47.78125 31.875 
Q 51.21875 27.09375 51.21875 20.453125 
Q 51.21875 11.28125 44.71875 5.03125 
Q 38.234375 -1.21875 27.640625 -1.21875 
Q 17.046875 -1.21875 10.546875 5.046875 
Q 4.046875 11.328125 4.046875 20.703125 
Q 4.046875 27.6875 7.59375 32.390625 
Q 11.140625 37.109375 17.671875 38.8125 
z
M 15.921875 53.71875 
Q 15.921875 48.640625 19.1875 45.40625 
Q 22.46875 42.1875 27.6875 42.1875 
Q 32.765625 42.1875 36.015625 45.375 
Q 39.265625 48.578125 39.265625 53.21875 
Q 39.265625 58.0625 35.90625 61.359375 
Q 32.5625 64.65625 27.59375 64.65625 
Q 22.5625 64.65625 19.234375 61.421875 
Q 15.921875 58.203125 15.921875 53.71875 
z
M 13.09375 20.65625 
Q 13.09375 16.890625 14.875 13.375 
Q 16.65625 9.859375 20.171875 7.921875 
Q 23.6875 6 27.734375 6 
Q 34.03125 6 38.125 10.046875 
Q 42.234375 14.109375 42.234375 20.359375 
Q 42.234375 26.703125 38.015625 30.859375 
Q 33.796875 35.015625 27.4375 35.015625 
Q 21.234375 35.015625 17.15625 30.90625 
Q 13.09375 26.8125 13.09375 20.65625 
z
" id="ArialMT-38"/>
      </defs>
      <g style="fill:#262626;" transform="translate(26.40925 146.212021)scale(0.08 -0.08)">
       <use xlink:href="#ArialMT-38"/>
       <use x="55.615234" xlink:href="#ArialMT-30"/>
       <use x="111.230469" xlink:href="#ArialMT-30"/>
       <use x="166.845703" xlink:href="#ArialMT-30"/>
       <use x="222.460938" xlink:href="#ArialMT-30"/>
       <use x="278.076172" xlink:href="#ArialMT-30"/>
      </g>
     </g>
    </g>
    <g id="ytick_6">
     <g id="line2d_29">
      <path clip-path="url(#p18b190ab2a)" d="M 58.70175 101.386557 
L 450.432 101.386557 
" style="fill:none;stroke:#ffffff;stroke-linecap:round;stroke-width:0.8;"/>
     </g>
     <g id="line2d_30"/>
     <g id="text_16">
      <!-- 1000000 -->
      <g style="fill:#262626;" transform="translate(21.9605 104.249682)scale(0.08 -0.08)">
       <use xlink:href="#ArialMT-31"/>
       <use x="55.615234" xlink:href="#ArialMT-30"/>
       <use x="111.230469" xlink:href="#ArialMT-30"/>
       <use x="166.845703" xlink:href="#ArialMT-30"/>
       <use x="222.460938" xlink:href="#ArialMT-30"/>
       <use x="278.076172" xlink:href="#ArialMT-30"/>
       <use x="333.691406" xlink:href="#ArialMT-30"/>
      </g>
     </g>
    </g>
    <g id="ytick_7">
     <g id="line2d_31">
      <path clip-path="url(#p18b190ab2a)" d="M 58.70175 59.424219 
L 450.432 59.424219 
" style="fill:none;stroke:#ffffff;stroke-linecap:round;stroke-width:0.8;"/>
     </g>
     <g id="line2d_32"/>
     <g id="text_17">
      <!-- 1200000 -->
      <g style="fill:#262626;" transform="translate(21.9605 62.287344)scale(0.08 -0.08)">
       <use xlink:href="#ArialMT-31"/>
       <use x="55.615234" xlink:href="#ArialMT-32"/>
       <use x="111.230469" xlink:href="#ArialMT-30"/>
       <use x="166.845703" xlink:href="#ArialMT-30"/>
       <use x="222.460938" xlink:href="#ArialMT-30"/>
       <use x="278.076172" xlink:href="#ArialMT-30"/>
       <use x="333.691406" xlink:href="#ArialMT-30"/>
      </g>
     </g>
    </g>
    <g id="ytick_8">
     <g id="line2d_33">
      <path clip-path="url(#p18b190ab2a)" d="M 58.70175 17.46188 
L 450.432 17.46188 
" style="fill:none;stroke:#ffffff;stroke-linecap:round;stroke-width:0.8;"/>
     </g>
     <g id="line2d_34"/>
     <g id="text_18">
      <!-- 1400000 -->
      <g style="fill:#262626;" transform="translate(21.9605 20.325005)scale(0.08 -0.08)">
       <use xlink:href="#ArialMT-31"/>
       <use x="55.615234" xlink:href="#ArialMT-34"/>
       <use x="111.230469" xlink:href="#ArialMT-30"/>
       <use x="166.845703" xlink:href="#ArialMT-30"/>
       <use x="222.460938" xlink:href="#ArialMT-30"/>
       <use x="278.076172" xlink:href="#ArialMT-30"/>
       <use x="333.691406" xlink:href="#ArialMT-30"/>
      </g>
     </g>
    </g>
    <g id="text_19">
     <!-- Edge count -->
     <defs>
      <path d="M 7.90625 0 
L 7.90625 71.578125 
L 59.671875 71.578125 
L 59.671875 63.140625 
L 17.390625 63.140625 
L 17.390625 41.21875 
L 56.984375 41.21875 
L 56.984375 32.8125 
L 17.390625 32.8125 
L 17.390625 8.453125 
L 61.328125 8.453125 
L 61.328125 0 
z
" id="ArialMT-45"/>
      <path d="M 40.234375 0 
L 40.234375 6.546875 
Q 35.296875 -1.171875 25.734375 -1.171875 
Q 19.53125 -1.171875 14.328125 2.25 
Q 9.125 5.671875 6.265625 11.796875 
Q 3.421875 17.921875 3.421875 25.875 
Q 3.421875 33.640625 6 39.96875 
Q 8.59375 46.296875 13.765625 49.65625 
Q 18.953125 53.03125 25.34375 53.03125 
Q 30.03125 53.03125 33.6875 51.046875 
Q 37.359375 49.078125 39.65625 45.90625 
L 39.65625 71.578125 
L 48.390625 71.578125 
L 48.390625 0 
z
M 12.453125 25.875 
Q 12.453125 15.921875 16.640625 10.984375 
Q 20.84375 6.0625 26.5625 6.0625 
Q 32.328125 6.0625 36.34375 10.765625 
Q 40.375 15.484375 40.375 25.140625 
Q 40.375 35.796875 36.265625 40.765625 
Q 32.171875 45.75 26.171875 45.75 
Q 20.3125 45.75 16.375 40.96875 
Q 12.453125 36.1875 12.453125 25.875 
z
" id="ArialMT-64"/>
      <path id="ArialMT-20"/>
      <path d="M 40.4375 19 
L 49.078125 17.875 
Q 47.65625 8.9375 41.8125 3.875 
Q 35.984375 -1.171875 27.484375 -1.171875 
Q 16.84375 -1.171875 10.375 5.78125 
Q 3.90625 12.75 3.90625 25.734375 
Q 3.90625 34.125 6.6875 40.421875 
Q 9.46875 46.734375 15.15625 49.875 
Q 20.84375 53.03125 27.546875 53.03125 
Q 35.984375 53.03125 41.359375 48.75 
Q 46.734375 44.484375 48.25 36.625 
L 39.703125 35.296875 
Q 38.484375 40.53125 35.375 43.15625 
Q 32.28125 45.796875 27.875 45.796875 
Q 21.234375 45.796875 17.078125 41.03125 
Q 12.9375 36.28125 12.9375 25.984375 
Q 12.9375 15.53125 16.9375 10.796875 
Q 20.953125 6.0625 27.390625 6.0625 
Q 32.5625 6.0625 36.03125 9.234375 
Q 39.5 12.40625 40.4375 19 
z
" id="ArialMT-63"/>
      <path d="M 3.328125 25.921875 
Q 3.328125 40.328125 11.328125 47.265625 
Q 18.015625 53.03125 27.640625 53.03125 
Q 38.328125 53.03125 45.109375 46.015625 
Q 51.90625 39.015625 51.90625 26.65625 
Q 51.90625 16.65625 48.90625 10.90625 
Q 45.90625 5.171875 40.15625 2 
Q 34.421875 -1.171875 27.640625 -1.171875 
Q 16.75 -1.171875 10.03125 5.8125 
Q 3.328125 12.796875 3.328125 25.921875 
z
M 12.359375 25.921875 
Q 12.359375 15.96875 16.703125 11.015625 
Q 21.046875 6.0625 27.640625 6.0625 
Q 34.1875 6.0625 38.53125 11.03125 
Q 42.875 16.015625 42.875 26.21875 
Q 42.875 35.84375 38.5 40.796875 
Q 34.125 45.75 27.640625 45.75 
Q 21.046875 45.75 16.703125 40.8125 
Q 12.359375 35.890625 12.359375 25.921875 
z
" id="ArialMT-6f"/>
      <path d="M 40.578125 0 
L 40.578125 7.625 
Q 34.515625 -1.171875 24.125 -1.171875 
Q 19.53125 -1.171875 15.546875 0.578125 
Q 11.578125 2.34375 9.640625 5 
Q 7.71875 7.671875 6.9375 11.53125 
Q 6.390625 14.109375 6.390625 19.734375 
L 6.390625 51.859375 
L 15.1875 51.859375 
L 15.1875 23.09375 
Q 15.1875 16.21875 15.71875 13.8125 
Q 16.546875 10.359375 19.234375 8.375 
Q 21.921875 6.390625 25.875 6.390625 
Q 29.828125 6.390625 33.296875 8.421875 
Q 36.765625 10.453125 38.203125 13.9375 
Q 39.65625 17.4375 39.65625 24.078125 
L 39.65625 51.859375 
L 48.4375 51.859375 
L 48.4375 0 
z
" id="ArialMT-75"/>
      <path d="M 6.59375 0 
L 6.59375 51.859375 
L 14.5 51.859375 
L 14.5 44.484375 
Q 20.21875 53.03125 31 53.03125 
Q 35.6875 53.03125 39.625 51.34375 
Q 43.5625 49.65625 45.515625 46.921875 
Q 47.46875 44.1875 48.25 40.4375 
Q 48.734375 37.984375 48.734375 31.890625 
L 48.734375 0 
L 39.9375 0 
L 39.9375 31.546875 
Q 39.9375 36.921875 38.90625 39.578125 
Q 37.890625 42.234375 35.28125 43.8125 
Q 32.671875 45.40625 29.15625 45.40625 
Q 23.53125 45.40625 19.453125 41.84375 
Q 15.375 38.28125 15.375 28.328125 
L 15.375 0 
z
" id="ArialMT-6e"/>
     </defs>
     <g style="fill:#262626;" transform="translate(16.108375 183.043687)rotate(-90)scale(0.088 -0.088)">
      <use xlink:href="#ArialMT-45"/>
      <use x="66.699219" xlink:href="#ArialMT-64"/>
      <use x="122.314453" xlink:href="#ArialMT-67"/>
      <use x="177.929688" xlink:href="#ArialMT-65"/>
      <use x="233.544922" xlink:href="#ArialMT-20"/>
      <use x="261.328125" xlink:href="#ArialMT-63"/>
      <use x="311.328125" xlink:href="#ArialMT-6f"/>
      <use x="366.943359" xlink:href="#ArialMT-75"/>
      <use x="422.558594" xlink:href="#ArialMT-6e"/>
      <use x="478.173828" xlink:href="#ArialMT-74"/>
     </g>
    </g>
   </g>
   <g id="patch_3">
    <path clip-path="url(#p18b190ab2a)" d="M 76.50767 311.19825 
L 85.410631 311.19825 
L 85.410631 311.174751 
L 76.50767 311.174751 
z
" style="fill:#4c72b0;opacity:0.4;"/>
   </g>
   <g id="patch_4">
    <path clip-path="url(#p18b190ab2a)" d="M 85.410631 311.19825 
L 94.313591 311.19825 
L 94.313591 310.745686 
L 85.410631 310.745686 
z
" style="fill:#4c72b0;opacity:0.4;"/>
   </g>
   <g id="patch_5">
    <path clip-path="url(#p18b190ab2a)" d="M 94.313591 311.19825 
L 103.216551 311.19825 
L 103.216551 308.649248 
L 94.313591 308.649248 
z
" style="fill:#4c72b0;opacity:0.4;"/>
   </g>
   <g id="patch_6">
    <path clip-path="url(#p18b190ab2a)" d="M 103.216551 311.19825 
L 112.119511 311.19825 
L 112.119511 303.8005 
L 103.216551 303.8005 
z
" style="fill:#4c72b0;opacity:0.4;"/>
   </g>
   <g id="patch_7">
    <path clip-path="url(#p18b190ab2a)" d="M 112.119511 311.19825 
L 121.022472 311.19825 
L 121.022472 295.382225 
L 112.119511 295.382225 
z
" style="fill:#4c72b0;opacity:0.4;"/>
   </g>
   <g id="patch_8">
    <path clip-path="url(#p18b190ab2a)" d="M 121.022472 311.19825 
L 129.925432 311.19825 
L 129.925432 282.87535 
L 121.022472 282.87535 
z
" style="fill:#4c72b0;opacity:0.4;"/>
   </g>
   <g id="patch_9">
    <path clip-path="url(#p18b190ab2a)" d="M 129.925432 311.19825 
L 138.828392 311.19825 
L 138.828392 267.164441 
L 129.925432 267.164441 
z
" style="fill:#4c72b0;opacity:0.4;"/>
   </g>
   <g id="patch_10">
    <path clip-path="url(#p18b190ab2a)" d="M 138.828392 311.19825 
L 147.731352 311.19825 
L 147.731352 248.064653 
L 138.828392 248.064653 
z
" style="fill:#4c72b0;opacity:0.4;"/>
   </g>
   <g id="patch_11">
    <path clip-path="url(#p18b190ab2a)" d="M 147.731352 311.19825 
L 156.634313 311.19825 
L 156.634313 226.49664 
L 147.731352 226.49664 
z
" style="fill:#4c72b0;opacity:0.4;"/>
   </g>
   <g id="patch_12">
    <path clip-path="url(#p18b190ab2a)" d="M 156.634313 311.19825 
L 165.537273 311.19825 
L 165.537273 203.178588 
L 156.634313 203.178588 
z
" style="fill:#4c72b0;opacity:0.4;"/>
   </g>
   <g id="patch_13">
    <path clip-path="url(#p18b190ab2a)" d="M 165.537273 311.19825 
L 174.440233 311.19825 
L 174.440233 178.424375 
L 165.537273 178.424375 
z
" style="fill:#4c72b0;opacity:0.4;"/>
   </g>
   <g id="patch_14">
    <path clip-path="url(#p18b190ab2a)" d="M 174.440233 311.19825 
L 183.343193 311.19825 
L 183.343193 154.176018 
L 174.440233 154.176018 
z
" style="fill:#4c72b0;opacity:0.4;"/>
   </g>
   <g id="patch_15">
    <path clip-path="url(#p18b190ab2a)" d="M 183.343193 311.19825 
L 192.246153 311.19825 
L 192.246153 129.649451 
L 183.343193 129.649451 
z
" style="fill:#4c72b0;opacity:0.4;"/>
   </g>
   <g id="patch_16">
    <path clip-path="url(#p18b190ab2a)" d="M 192.246153 311.19825 
L 201.149114 311.19825 
L 201.149114 106.824876 
L 192.246153 106.824876 
z
" style="fill:#4c72b0;opacity:0.4;"/>
   </g>
   <g id="patch_17">
    <path clip-path="url(#p18b190ab2a)" d="M 201.149114 311.19825 
L 210.052074 311.19825 
L 210.052074 85.174198 
L 201.149114 85.174198 
z
" style="fill:#4c72b0;opacity:0.4;"/>
   </g>
   <g id="patch_18">
    <path clip-path="url(#p18b190ab2a)" d="M 210.052074 311.19825 
L 218.955034 311.19825 
L 218.955034 66.710349 
L 210.052074 66.710349 
z
" style="fill:#4c72b0;opacity:0.4;"/>
   </g>
   <g id="patch_19">
    <path clip-path="url(#p18b190ab2a)" d="M 218.955034 311.19825 
L 227.857994 311.19825 
L 227.857994 50.701717 
L 218.955034 50.701717 
z
" style="fill:#4c72b0;opacity:0.4;"/>
   </g>
   <g id="patch_20">
    <path clip-path="url(#p18b190ab2a)" d="M 227.857994 311.19825 
L 236.760955 311.19825 
L 236.760955 38.148054 
L 227.857994 38.148054 
z
" style="fill:#4c72b0;opacity:0.4;"/>
   </g>
   <g id="patch_21">
    <path clip-path="url(#p18b190ab2a)" d="M 236.760955 311.19825 
L 245.663915 311.19825 
L 245.663915 30.070933 
L 236.760955 30.070933 
z
" style="fill:#4c72b0;opacity:0.4;"/>
   </g>
   <g id="patch_22">
    <path clip-path="url(#p18b190ab2a)" d="M 245.663915 311.19825 
L 254.566875 311.19825 
L 254.566875 25.311985 
L 245.663915 25.311985 
z
" style="fill:#4c72b0;opacity:0.4;"/>
   </g>
   <g id="patch_23">
    <path clip-path="url(#p18b190ab2a)" d="M 254.566875 311.19825 
L 263.469835 311.19825 
L 263.469835 24.69325 
L 254.566875 24.69325 
z
" style="fill:#4c72b0;opacity:0.4;"/>
   </g>
   <g id="patch_24">
    <path clip-path="url(#p18b190ab2a)" d="M 263.469835 311.19825 
L 272.372795 311.19825 
L 272.372795 28.975507 
L 263.469835 28.975507 
z
" style="fill:#4c72b0;opacity:0.4;"/>
   </g>
   <g id="patch_25">
    <path clip-path="url(#p18b190ab2a)" d="M 272.372795 311.19825 
L 281.275756 311.19825 
L 281.275756 36.600903 
L 272.372795 36.600903 
z
" style="fill:#4c72b0;opacity:0.4;"/>
   </g>
   <g id="patch_26">
    <path clip-path="url(#p18b190ab2a)" d="M 281.275756 311.19825 
L 290.178716 311.19825 
L 290.178716 47.80149 
L 281.275756 47.80149 
z
" style="fill:#4c72b0;opacity:0.4;"/>
   </g>
   <g id="patch_27">
    <path clip-path="url(#p18b190ab2a)" d="M 290.178716 311.19825 
L 299.081676 311.19825 
L 299.081676 63.305525 
L 290.178716 63.305525 
z
" style="fill:#4c72b0;opacity:0.4;"/>
   </g>
   <g id="patch_28">
    <path clip-path="url(#p18b190ab2a)" d="M 299.081676 311.19825 
L 307.984636 311.19825 
L 307.984636 81.299605 
L 299.081676 81.299605 
z
" style="fill:#4c72b0;opacity:0.4;"/>
   </g>
   <g id="patch_29">
    <path clip-path="url(#p18b190ab2a)" d="M 307.984636 311.19825 
L 316.887597 311.19825 
L 316.887597 102.282034 
L 307.984636 102.282034 
z
" style="fill:#4c72b0;opacity:0.4;"/>
   </g>
   <g id="patch_30">
    <path clip-path="url(#p18b190ab2a)" d="M 316.887597 311.19825 
L 325.790557 311.19825 
L 325.790557 124.92638 
L 316.887597 124.92638 
z
" style="fill:#4c72b0;opacity:0.4;"/>
   </g>
   <g id="patch_31">
    <path clip-path="url(#p18b190ab2a)" d="M 325.790557 311.19825 
L 334.693517 311.19825 
L 334.693517 149.003321 
L 325.790557 149.003321 
z
" style="fill:#4c72b0;opacity:0.4;"/>
   </g>
   <g id="patch_32">
    <path clip-path="url(#p18b190ab2a)" d="M 334.693517 311.19825 
L 343.596477 311.19825 
L 343.596477 174.045605 
L 334.693517 174.045605 
z
" style="fill:#4c72b0;opacity:0.4;"/>
   </g>
   <g id="patch_33">
    <path clip-path="url(#p18b190ab2a)" d="M 343.596477 311.19825 
L 352.499437 311.19825 
L 352.499437 198.745267 
L 343.596477 198.745267 
z
" style="fill:#4c72b0;opacity:0.4;"/>
   </g>
   <g id="patch_34">
    <path clip-path="url(#p18b190ab2a)" d="M 352.499437 311.19825 
L 361.402398 311.19825 
L 361.402398 222.538752 
L 352.499437 222.538752 
z
" style="fill:#4c72b0;opacity:0.4;"/>
   </g>
   <g id="patch_35">
    <path clip-path="url(#p18b190ab2a)" d="M 361.402398 311.19825 
L 370.305358 311.19825 
L 370.305358 244.861248 
L 361.402398 244.861248 
z
" style="fill:#4c72b0;opacity:0.4;"/>
   </g>
   <g id="patch_36">
    <path clip-path="url(#p18b190ab2a)" d="M 370.305358 311.19825 
L 379.208318 311.19825 
L 379.208318 264.465633 
L 370.305358 264.465633 
z
" style="fill:#4c72b0;opacity:0.4;"/>
   </g>
   <g id="patch_37">
    <path clip-path="url(#p18b190ab2a)" d="M 379.208318 311.19825 
L 388.111278 311.19825 
L 388.111278 281.009285 
L 379.208318 281.009285 
z
" style="fill:#4c72b0;opacity:0.4;"/>
   </g>
   <g id="patch_38">
    <path clip-path="url(#p18b190ab2a)" d="M 388.111278 311.19825 
L 397.014239 311.19825 
L 397.014239 294.035863 
L 388.111278 294.035863 
z
" style="fill:#4c72b0;opacity:0.4;"/>
   </g>
   <g id="patch_39">
    <path clip-path="url(#p18b190ab2a)" d="M 397.014239 311.19825 
L 405.917199 311.19825 
L 405.917199 303.097211 
L 397.014239 303.097211 
z
" style="fill:#4c72b0;opacity:0.4;"/>
   </g>
   <g id="patch_40">
    <path clip-path="url(#p18b190ab2a)" d="M 405.917199 311.19825 
L 414.820159 311.19825 
L 414.820159 308.345231 
L 405.917199 308.345231 
z
" style="fill:#4c72b0;opacity:0.4;"/>
   </g>
   <g id="patch_41">
    <path clip-path="url(#p18b190ab2a)" d="M 414.820159 311.19825 
L 423.723119 311.19825 
L 423.723119 310.659244 
L 414.820159 310.659244 
z
" style="fill:#4c72b0;opacity:0.4;"/>
   </g>
   <g id="patch_42">
    <path clip-path="url(#p18b190ab2a)" d="M 423.723119 311.19825 
L 432.62608 311.19825 
L 432.62608 311.160064 
L 423.723119 311.160064 
z
" style="fill:#4c72b0;opacity:0.4;"/>
   </g>
   <g id="patch_43">
    <path d="M 58.70175 311.19825 
L 58.70175 10.368 
" style="fill:none;"/>
   </g>
   <g id="patch_44">
    <path d="M 450.432 311.19825 
L 450.432 10.368 
" style="fill:none;"/>
   </g>
   <g id="patch_45">
    <path d="M 58.70175 311.19825 
L 450.432 311.19825 
" style="fill:none;"/>
   </g>
   <g id="patch_46">
    <path d="M 58.70175 10.368 
L 450.432 10.368 
" style="fill:none;"/>
   </g>
  </g>
 </g>
 <defs>
  <clipPath id="p18b190ab2a">
   <rect height="300.83025" width="391.73025" x="58.70175" y="10.368"/>
  </clipPath>
 </defs>
</svg>
